<mxfile host="Electron" agent="Mozilla/5.0 (X11; Linux x86_64) AppleWebKit/537.36 (KHTML, like Gecko) draw.io/28.1.2 Chrome/138.0.7204.243 Electron/37.4.0 Safari/537.36" version="28.1.2">
  <diagram name="PÃ¡gina-1" id="TdXgL12jWPz7DJJsP1rq">
    <mxGraphModel dx="2893" dy="1155" grid="1" gridSize="10" guides="1" tooltips="1" connect="1" arrows="1" fold="1" page="1" pageScale="1" pageWidth="827" pageHeight="1169" math="0" shadow="0">
      <root>
        <mxCell id="0" />
        <mxCell id="Al5XGX1l0qWC6tel_waJ-2" value="account" style="locked=1;" parent="0" />
        <mxCell id="Al5XGX1l0qWC6tel_waJ-3" value="AWS Account" style="points=[[0,0],[0.25,0],[0.5,0],[0.75,0],[1,0],[1,0.25],[1,0.5],[1,0.75],[1,1],[0.75,1],[0.5,1],[0.25,1],[0,1],[0,0.75],[0,0.5],[0,0.25]];outlineConnect=0;gradientColor=none;html=1;whiteSpace=wrap;fontSize=12;fontStyle=0;container=1;pointerEvents=0;collapsible=0;recursiveResize=0;shape=mxgraph.aws4.group;grIcon=mxgraph.aws4.group_account;strokeColor=#CD2264;fillColor=none;verticalAlign=top;align=left;spacingLeft=30;fontColor=#CD2264;dashed=0;" vertex="1" parent="Al5XGX1l0qWC6tel_waJ-2">
          <mxGeometry x="-80" y="130" width="960" height="670" as="geometry" />
        </mxCell>
        <mxCell id="1" value="vpc" style="locked=1;" parent="0" />
        <mxCell id="Al5XGX1l0qWC6tel_waJ-1" value="VPC" style="points=[[0,0],[0.25,0],[0.5,0],[0.75,0],[1,0],[1,0.25],[1,0.5],[1,0.75],[1,1],[0.75,1],[0.5,1],[0.25,1],[0,1],[0,0.75],[0,0.5],[0,0.25]];outlineConnect=0;gradientColor=none;html=1;whiteSpace=wrap;fontSize=12;fontStyle=0;container=1;pointerEvents=0;collapsible=0;recursiveResize=0;shape=mxgraph.aws4.group;grIcon=mxgraph.aws4.group_vpc2;strokeColor=#8C4FFF;fillColor=none;verticalAlign=top;align=left;spacingLeft=30;fontColor=#AAB7B8;dashed=0;" vertex="1" parent="1">
          <mxGeometry x="120" y="160" width="520" height="480" as="geometry" />
        </mxCell>
        <mxCell id="Al5XGX1l0qWC6tel_waJ-4" value="subnets" style="locked=1;" parent="0" />
        <mxCell id="Al5XGX1l0qWC6tel_waJ-5" value="Private subnet" style="points=[[0,0],[0.25,0],[0.5,0],[0.75,0],[1,0],[1,0.25],[1,0.5],[1,0.75],[1,1],[0.75,1],[0.5,1],[0.25,1],[0,1],[0,0.75],[0,0.5],[0,0.25]];outlineConnect=0;gradientColor=none;html=1;whiteSpace=wrap;fontSize=12;fontStyle=0;container=1;pointerEvents=0;collapsible=0;recursiveResize=0;shape=mxgraph.aws4.group;grIcon=mxgraph.aws4.group_security_group;grStroke=0;strokeColor=#00A4A6;fillColor=#E6F6F7;verticalAlign=top;align=left;spacingLeft=30;fontColor=#147EBA;dashed=0;" vertex="1" parent="Al5XGX1l0qWC6tel_waJ-4">
          <mxGeometry x="320" y="240" width="300" height="130" as="geometry" />
        </mxCell>
        <mxCell id="Al5XGX1l0qWC6tel_waJ-6" value="Private subnet" style="points=[[0,0],[0.25,0],[0.5,0],[0.75,0],[1,0],[1,0.25],[1,0.5],[1,0.75],[1,1],[0.75,1],[0.5,1],[0.25,1],[0,1],[0,0.75],[0,0.5],[0,0.25]];outlineConnect=0;gradientColor=none;html=1;whiteSpace=wrap;fontSize=12;fontStyle=0;container=1;pointerEvents=0;collapsible=0;recursiveResize=0;shape=mxgraph.aws4.group;grIcon=mxgraph.aws4.group_security_group;grStroke=0;strokeColor=#00A4A6;fillColor=#E6F6F7;verticalAlign=top;align=left;spacingLeft=30;fontColor=#147EBA;dashed=0;" vertex="1" parent="Al5XGX1l0qWC6tel_waJ-4">
          <mxGeometry x="320" y="400" width="300" height="130" as="geometry" />
        </mxCell>
        <mxCell id="Al5XGX1l0qWC6tel_waJ-7" value="ecs" style="locked=1;" parent="0" />
        <mxCell id="Al5XGX1l0qWC6tel_waJ-28" style="edgeStyle=orthogonalEdgeStyle;rounded=0;orthogonalLoop=1;jettySize=auto;html=1;" edge="1" parent="Al5XGX1l0qWC6tel_waJ-7" source="Al5XGX1l0qWC6tel_waJ-17" target="Al5XGX1l0qWC6tel_waJ-25">
          <mxGeometry relative="1" as="geometry">
            <Array as="points">
              <mxPoint x="540" y="546" />
            </Array>
          </mxGeometry>
        </mxCell>
        <mxCell id="Al5XGX1l0qWC6tel_waJ-35" value="extraction" style="edgeLabel;html=1;align=center;verticalAlign=middle;resizable=0;points=[];" vertex="1" connectable="0" parent="Al5XGX1l0qWC6tel_waJ-28">
          <mxGeometry x="-0.1329" y="-2" relative="1" as="geometry">
            <mxPoint as="offset" />
          </mxGeometry>
        </mxCell>
        <mxCell id="Al5XGX1l0qWC6tel_waJ-29" style="edgeStyle=orthogonalEdgeStyle;rounded=0;orthogonalLoop=1;jettySize=auto;html=1;" edge="1" parent="Al5XGX1l0qWC6tel_waJ-7" source="Al5XGX1l0qWC6tel_waJ-17" target="Al5XGX1l0qWC6tel_waJ-26">
          <mxGeometry relative="1" as="geometry">
            <Array as="points">
              <mxPoint x="790" y="390" />
            </Array>
          </mxGeometry>
        </mxCell>
        <mxCell id="Al5XGX1l0qWC6tel_waJ-36" value="upload" style="edgeLabel;html=1;align=center;verticalAlign=middle;resizable=0;points=[];" vertex="1" connectable="0" parent="Al5XGX1l0qWC6tel_waJ-29">
          <mxGeometry x="-0.0815" y="-1" relative="1" as="geometry">
            <mxPoint as="offset" />
          </mxGeometry>
        </mxCell>
        <mxCell id="Al5XGX1l0qWC6tel_waJ-33" style="edgeStyle=orthogonalEdgeStyle;rounded=0;orthogonalLoop=1;jettySize=auto;html=1;" edge="1" parent="Al5XGX1l0qWC6tel_waJ-7" source="Al5XGX1l0qWC6tel_waJ-17" target="Al5XGX1l0qWC6tel_waJ-32">
          <mxGeometry relative="1" as="geometry">
            <Array as="points">
              <mxPoint x="560" y="580" />
              <mxPoint x="439" y="580" />
            </Array>
          </mxGeometry>
        </mxCell>
        <mxCell id="Al5XGX1l0qWC6tel_waJ-34" value="pull" style="edgeLabel;html=1;align=center;verticalAlign=middle;resizable=0;points=[];" vertex="1" connectable="0" parent="Al5XGX1l0qWC6tel_waJ-33">
          <mxGeometry x="0.0145" relative="1" as="geometry">
            <mxPoint as="offset" />
          </mxGeometry>
        </mxCell>
        <mxCell id="Al5XGX1l0qWC6tel_waJ-17" value="" style="rounded=1;arcSize=10;strokeColor=#F59D56;fillColor=none;gradientColor=none;strokeWidth=2;" vertex="1" parent="Al5XGX1l0qWC6tel_waJ-7">
          <mxGeometry x="470" y="270" width="140" height="240" as="geometry" />
        </mxCell>
        <mxCell id="Al5XGX1l0qWC6tel_waJ-13" style="edgeStyle=orthogonalEdgeStyle;rounded=0;orthogonalLoop=1;jettySize=auto;html=1;" edge="1" parent="Al5XGX1l0qWC6tel_waJ-7" source="Al5XGX1l0qWC6tel_waJ-8" target="Al5XGX1l0qWC6tel_waJ-9">
          <mxGeometry relative="1" as="geometry">
            <Array as="points">
              <mxPoint x="490" y="389" />
              <mxPoint x="490" y="305" />
            </Array>
          </mxGeometry>
        </mxCell>
        <mxCell id="Al5XGX1l0qWC6tel_waJ-14" style="edgeStyle=orthogonalEdgeStyle;rounded=0;orthogonalLoop=1;jettySize=auto;html=1;" edge="1" parent="Al5XGX1l0qWC6tel_waJ-7" source="Al5XGX1l0qWC6tel_waJ-8" target="Al5XGX1l0qWC6tel_waJ-11">
          <mxGeometry relative="1" as="geometry">
            <Array as="points">
              <mxPoint x="490" y="389" />
              <mxPoint x="490" y="413" />
            </Array>
          </mxGeometry>
        </mxCell>
        <mxCell id="Al5XGX1l0qWC6tel_waJ-15" style="edgeStyle=orthogonalEdgeStyle;rounded=0;orthogonalLoop=1;jettySize=auto;html=1;" edge="1" parent="Al5XGX1l0qWC6tel_waJ-7" source="Al5XGX1l0qWC6tel_waJ-8" target="Al5XGX1l0qWC6tel_waJ-12">
          <mxGeometry relative="1" as="geometry">
            <Array as="points">
              <mxPoint x="490" y="389" />
              <mxPoint x="490" y="465" />
            </Array>
          </mxGeometry>
        </mxCell>
        <mxCell id="Al5XGX1l0qWC6tel_waJ-16" style="edgeStyle=orthogonalEdgeStyle;rounded=0;orthogonalLoop=1;jettySize=auto;html=1;" edge="1" parent="Al5XGX1l0qWC6tel_waJ-7" source="Al5XGX1l0qWC6tel_waJ-8" target="Al5XGX1l0qWC6tel_waJ-10">
          <mxGeometry relative="1" as="geometry">
            <Array as="points">
              <mxPoint x="490" y="389" />
              <mxPoint x="490" y="365" />
            </Array>
          </mxGeometry>
        </mxCell>
        <mxCell id="Al5XGX1l0qWC6tel_waJ-8" value="ECS Cluster" style="sketch=0;points=[[0,0,0],[0.25,0,0],[0.5,0,0],[0.75,0,0],[1,0,0],[0,1,0],[0.25,1,0],[0.5,1,0],[0.75,1,0],[1,1,0],[0,0.25,0],[0,0.5,0],[0,0.75,0],[1,0.25,0],[1,0.5,0],[1,0.75,0]];outlineConnect=0;fontColor=#232F3E;fillColor=#ED7100;strokeColor=#ffffff;dashed=0;verticalLabelPosition=bottom;verticalAlign=top;align=center;html=1;fontSize=12;fontStyle=0;aspect=fixed;shape=mxgraph.aws4.resourceIcon;resIcon=mxgraph.aws4.ecs;" vertex="1" parent="Al5XGX1l0qWC6tel_waJ-7">
          <mxGeometry x="374" y="350" width="78" height="78" as="geometry" />
        </mxCell>
        <mxCell id="Al5XGX1l0qWC6tel_waJ-9" value="fargate" style="sketch=0;outlineConnect=0;fontColor=#232F3E;gradientColor=none;fillColor=#ED7100;strokeColor=none;dashed=0;verticalLabelPosition=bottom;verticalAlign=top;align=center;html=1;fontSize=12;fontStyle=0;aspect=fixed;pointerEvents=1;shape=mxgraph.aws4.container_1;" vertex="1" parent="Al5XGX1l0qWC6tel_waJ-7">
          <mxGeometry x="520" y="290" width="48" height="31" as="geometry" />
        </mxCell>
        <mxCell id="Al5XGX1l0qWC6tel_waJ-10" value="" style="sketch=0;outlineConnect=0;fontColor=#232F3E;gradientColor=none;fillColor=#ED7100;strokeColor=none;dashed=0;verticalLabelPosition=bottom;verticalAlign=top;align=center;html=1;fontSize=12;fontStyle=0;aspect=fixed;pointerEvents=1;shape=mxgraph.aws4.container_1;" vertex="1" parent="Al5XGX1l0qWC6tel_waJ-7">
          <mxGeometry x="520" y="350" width="48" height="31" as="geometry" />
        </mxCell>
        <mxCell id="Al5XGX1l0qWC6tel_waJ-11" value="" style="sketch=0;outlineConnect=0;fontColor=#232F3E;gradientColor=none;fillColor=#ED7100;strokeColor=none;dashed=0;verticalLabelPosition=bottom;verticalAlign=top;align=center;html=1;fontSize=12;fontStyle=0;aspect=fixed;pointerEvents=1;shape=mxgraph.aws4.container_1;" vertex="1" parent="Al5XGX1l0qWC6tel_waJ-7">
          <mxGeometry x="520" y="397" width="48" height="31" as="geometry" />
        </mxCell>
        <mxCell id="Al5XGX1l0qWC6tel_waJ-12" value="" style="sketch=0;outlineConnect=0;fontColor=#232F3E;gradientColor=none;fillColor=#ED7100;strokeColor=none;dashed=0;verticalLabelPosition=bottom;verticalAlign=top;align=center;html=1;fontSize=12;fontStyle=0;aspect=fixed;pointerEvents=1;shape=mxgraph.aws4.container_1;" vertex="1" parent="Al5XGX1l0qWC6tel_waJ-7">
          <mxGeometry x="520" y="450" width="48" height="31" as="geometry" />
        </mxCell>
        <mxCell id="Al5XGX1l0qWC6tel_waJ-32" value="ECR - Docker imagen Python" style="sketch=0;points=[[0,0,0],[0.25,0,0],[0.5,0,0],[0.75,0,0],[1,0,0],[0,1,0],[0.25,1,0],[0.5,1,0],[0.75,1,0],[1,1,0],[0,0.25,0],[0,0.5,0],[0,0.75,0],[1,0.25,0],[1,0.5,0],[1,0.75,0]];outlineConnect=0;fontColor=#232F3E;fillColor=#ED7100;strokeColor=#ffffff;dashed=0;verticalLabelPosition=bottom;verticalAlign=top;align=center;html=1;fontSize=12;fontStyle=0;aspect=fixed;shape=mxgraph.aws4.resourceIcon;resIcon=mxgraph.aws4.ecr;" vertex="1" parent="Al5XGX1l0qWC6tel_waJ-7">
          <mxGeometry x="400" y="660" width="78" height="78" as="geometry" />
        </mxCell>
        <mxCell id="Al5XGX1l0qWC6tel_waJ-18" value="batch" style="locked=1;" parent="0" />
        <mxCell id="Al5XGX1l0qWC6tel_waJ-20" style="edgeStyle=orthogonalEdgeStyle;rounded=0;orthogonalLoop=1;jettySize=auto;html=1;" edge="1" parent="Al5XGX1l0qWC6tel_waJ-18" source="Al5XGX1l0qWC6tel_waJ-19">
          <mxGeometry relative="1" as="geometry">
            <mxPoint x="370" y="389" as="targetPoint" />
          </mxGeometry>
        </mxCell>
        <mxCell id="Al5XGX1l0qWC6tel_waJ-19" value="AWS Batch" style="sketch=0;points=[[0,0,0],[0.25,0,0],[0.5,0,0],[0.75,0,0],[1,0,0],[0,1,0],[0.25,1,0],[0.5,1,0],[0.75,1,0],[1,1,0],[0,0.25,0],[0,0.5,0],[0,0.75,0],[1,0.25,0],[1,0.5,0],[1,0.75,0]];outlineConnect=0;fontColor=#232F3E;fillColor=#ED7100;strokeColor=#ffffff;dashed=0;verticalLabelPosition=bottom;verticalAlign=top;align=center;html=1;fontSize=12;fontStyle=0;aspect=fixed;shape=mxgraph.aws4.resourceIcon;resIcon=mxgraph.aws4.batch;" vertex="1" parent="Al5XGX1l0qWC6tel_waJ-18">
          <mxGeometry x="160" y="350" width="78" height="78" as="geometry" />
        </mxCell>
        <mxCell id="Al5XGX1l0qWC6tel_waJ-24" value="storage" style="locked=1;" parent="0" />
        <mxCell id="Al5XGX1l0qWC6tel_waJ-25" value="s3-datalake-raw" style="sketch=0;points=[[0,0,0],[0.25,0,0],[0.5,0,0],[0.75,0,0],[1,0,0],[0,1,0],[0.25,1,0],[0.5,1,0],[0.75,1,0],[1,1,0],[0,0.25,0],[0,0.5,0],[0,0.75,0],[1,0.25,0],[1,0.5,0],[1,0.75,0]];outlineConnect=0;fontColor=#232F3E;fillColor=#7AA116;strokeColor=#ffffff;dashed=0;verticalLabelPosition=bottom;verticalAlign=top;align=center;html=1;fontSize=12;fontStyle=0;aspect=fixed;shape=mxgraph.aws4.resourceIcon;resIcon=mxgraph.aws4.s3;" vertex="1" parent="Al5XGX1l0qWC6tel_waJ-24">
          <mxGeometry x="-20" y="507" width="78" height="78" as="geometry" />
        </mxCell>
        <mxCell id="Al5XGX1l0qWC6tel_waJ-26" value="s3-datalake-curated" style="sketch=0;points=[[0,0,0],[0.25,0,0],[0.5,0,0],[0.75,0,0],[1,0,0],[0,1,0],[0.25,1,0],[0.5,1,0],[0.75,1,0],[1,1,0],[0,0.25,0],[0,0.5,0],[0,0.75,0],[1,0.25,0],[1,0.5,0],[1,0.75,0]];outlineConnect=0;fontColor=#232F3E;fillColor=#7AA116;strokeColor=#ffffff;dashed=0;verticalLabelPosition=bottom;verticalAlign=top;align=center;html=1;fontSize=12;fontStyle=0;aspect=fixed;shape=mxgraph.aws4.resourceIcon;resIcon=mxgraph.aws4.s3;" vertex="1" parent="Al5XGX1l0qWC6tel_waJ-24">
          <mxGeometry x="760" y="500" width="78" height="78" as="geometry" />
        </mxCell>
        <mxCell id="Al5XGX1l0qWC6tel_waJ-30" value="" style="dashed=0;outlineConnect=0;html=1;align=center;labelPosition=center;verticalLabelPosition=bottom;verticalAlign=top;shape=mxgraph.weblogos.json" vertex="1" parent="Al5XGX1l0qWC6tel_waJ-24">
          <mxGeometry x="-2" y="453.35" width="42" height="40" as="geometry" />
        </mxCell>
        <mxCell id="Al5XGX1l0qWC6tel_waJ-31" value="" style="shape=image;verticalLabelPosition=bottom;labelBackgroundColor=default;verticalAlign=top;aspect=fixed;imageAspect=0;image=data:image/png,iVBORw0KGgoAAAANSUhEUgAAAZAAAAEKCAIAAACzIJS+AAAQAElEQVR4AexdB3wb1f2/JemGbMdx7CSOs4cznGU7zgYKhVJoS1kFWvaGsEuhA/pvKW3K3nuVVVahlEIpsxAyHCe2s529hxPHiWPr7nSS7u7/PStxZOlOlqWT43H5vMh3b/zG9/3eT7/3eyeJ0p1/DgI2IRDS9P2i+sYqCQUXuLWJsEPGQeAwAhTh/HMQsAMBOah/sVn5yyLfuzV+FFzg1h/S7aDt0HAQOIyA47AOA+H8SQ4BTSeaFO3zTcofvvM9USltb1A9JIGCC9z+6TsfmtAB3ZKj74xyEIhEgIq8ca67NwK2a6fqRNWuwAvV0t9WyhsOhASaII/wwAVua+pDaEIHdEPnI43OXweBJBFwHFaSwPXwYYqqL90VfHSh78EKccHOYEjVGbioGFBQiSZ0QDd0xhAMjOnlVDgIJIqA47ASRcrpF0YASaktB9XXlsnPV4uLa4PY69FmrircOfyKDuiGzhiCgRgOIuEm59VBoF0IOA6rXXD16M5wOlsb1NdWSL/7pvGLrUqD0m63gyEYiOEgsqtJ7dFoplv5bkqf6qZ6OWrZjMBBv/bfTX6c/X28QQlpKRHH8NV7Q7WOw0oJxR462HFYPXTiE1QbUVWdqH22Wfndt03PVssNktbW/s+SMOKxEEEMzKB/Ppb93WxvSb47squO5sh759pBwAwBx2GZoeLUNSMgBfVluwNPLBVfWi7vbdLYFIwFjo+gyRMHuudM4U8fxWZF0FJC+pp9QTACu2a2zouDgCUCKdigJc2u39DjNfAFcAgYeHBB0/0V4pr9IULTkThPDhVsH0manNTfdd9x3mtKhGHZjOsIraCqb6gPPVUh3rtQ/OtiEeyW7gqAdXKMnFE9AQHHYfWEWW6HjgiF1u0PvVApvlAtraxXVY1IxUTgrXp5qOuL+RtL+KG94aoOS6IThC+of7DG//QSsXxPEJ4LfMEOTMEaAuD2cFfnj4NABAKpWGMEGeey6yOAXPiWg6FHFov3zvct2h08qOhIV6EkrVk2S/1sDPfwyZnHD3JjD9hCKqDqn21U7vq68f31/l0ifJrxuClaUcAUrCEAxNhyMASRkubuDOyWCDgOq1tOa/uUQjhzUNbeXCXdXy6W7wqk+GwnoicPTc4scN9cJpwzhs30wBEdlkfVic0H1UeXSq+tlHf5DFd1uKH1HwgAMSAMRIJgEK91u713DrWuhIDjsLrSbNkuKzzIQUl7f638m2+bPlin1KdwCAjZ4FmQnyrtx9xSxt88VRiby1BHnBWadh5S310j3/Z1Y8WOQEgzwjcMsSoYB2Eg0m+/bcIoCAlRrTo79T0HAcdh9Zy5bqWprhNIb3+3xY+0+rs1/jqf5knBFhBVBXViUBZ9wRj2mmJhcv9WjyyAUfkO5eEl4gdr/Who8WKtBDK7gUj7fNp7aw0hISroQGyzjk5dT0EgBSPtKRB1Qz2bFP3rLcqj5b5HquSN9SFSJ2iENMkqGtCJ3jx13hj297O8pxeyvTiqxSXJIX3l3uCDC32PLJV2HFKTYALBaIKAkBD1oUW++TsCyYrpjOsOCKTosLoDBD1KB6Sxl9UGX6wSX18pL6sLeUiCTEF/BFbY2s0ocN0+VTiz2VW1UNN0Yo9Pe61aemqptKo+ROgpMQJZF0n4QnqGG5cpSOwM7eIIOA6ri09gwuLDgyzbG3y8Qrx/oW/h7qAU0lOceySoRuYwiKpuneId2ZvxMEddSYNfe3u1fO+8pi+3Bw74NTA62pawwC0ddYLIZKmzCtk/n5A5qZ+rpd656IEIUD1Q556mMlzVzkb15WXSE0sknL6F9JSCHaCHHV+Wm7ywiL2tTBif53Jhz4ba5oIIrnJP8JEK8aP1/jo5+c/xNBMzXhiKGJND3zld+NlYzh3BSCcIf0j/39bAHp+q4sbo6/zv/gg4Dqs7z7GqEbsbVSStf/NN06eblCZFI1L4h6HwDL1Z8oyR7J9OzDxtJNuHP2o/OPhbtz/0bJV413zfmjrcoXtKhSSJAV7qqkn8b2ZmIIKD52ohB+rlOwP/953vkSXiHV81/WOtH2pC2ZYOzkV3ReCowXVXDXumXoiqDsrat1uVP5f73l0j+4PJf7YmDCAIIjA7boBrTqlw9li2n3DUcnByVy9pn29U7qsQv94ayKDQMTwoyVe4VYoivj/YDV7HDfFwSF8doQRe+0Ttwxr/U1USMvEsZcRZUBBqQlmobMh5pLPzt/shQHU/lRyN4D6+2aLMXeB7vEqqa9KwkUolhQQXgF3kxL7M7VOEq6cI4/u63Di6O4Jyo6It2K78eb7vhRWyT9YiEllHerTnLyK4gE6M7cPcNkW4dLIwIoeJYEVIQb18R2Dugqa/1/gDwcMuGKpBQagJZaEyFIf67eHp9O1KCDgOqyvNVpuyYkkv3RV4Zqn42ip5U4Oa+pEagh0vT11UxN1QKpQWuD0R/gPpqg31oRcqpZeXy9sb1YgwqE0xzTvAW7ld2G96bp4ilA5wuyJsE06z1qe9vlx6aQV4mbtFKAuVoTjUBwiAwpyNU5sIAp21T4RRdFYRHbkSQUBR9era4AMLfY8tEZfXhbBcI3xLIgSi+8BH8B7y5GGex0/M+Gkhm81RyLWHO8Gz7GpCFl+8b6Fv0Z6gL6i3NIU7JPFKU2RhLvOX47wXT+Bz+KO8QArJ9f9u8M+d3/TltgACujh6oQmKQ32AACgACGABBad0GwQch9XlpxLJ5t1N2mMV4pNLxNX7Q4qaagoJiLhpoqgPc8c076XjuUyWQv4blShwVQFV/89G5eFy8astgcaAnroBgXiGm/zFOPb2MmFwr1Z7QDjNrQ3qc1XSW2v8e8REzxyxSQQIgAKAABaAA4ggvFO6AQKp21s3AKGrqoDDsl2N6vPLpNu/alyyO9gUgD9JSRektN0UMTKbvqFE+PUsL3JJkU9XwVWBy9yFvpeWSTsabXiWAOJij3nCQPfvZmX8aBTbi21ljQimvtii/OG7pnnbk/w8NgCBwAAHEAEowJUSOs7gToBAKxPpBPJ0CxHSrwRCjwOS9uFa/9xFvi82K0FVR1iRClv4DqSrsBf72RhuzhRh2kA3G5E/B7vdjeo7q+XHl4or9oYiWpLkCXYqQQzLoi8ez108kR+Wjbz5UVLIju08pD66RHpxuexTDifXjza35wqwABxANLdcXLIn2J6hTt/OiIDjsDrjrMSRCb4Dp2D/XudHpPPqav9enwb3gWUZZ0ibTTgE9HrIM0d6fj1d+MloNj+jlfvYJ6qfrPffM9/33jql5WyuTZpxOqg6kemhfjrCc8cM78nDPQKy5Ud6w5HBEX9QI9/9XdPy2iCp6VSKuhEEEMvwkCcNdI3sxRzh4/ztqgg4DqvLzJyuE0pI/3qT/+ml4ts1/s0NKkelmq6Cg0CkU9bfdVOJcPZYbnB2qyWNBHbl7uAzS6W31sh1ktZ6x5YMbmF2I3rTN5fy54zlENBFUkFgtaI2+EKV9M/1/iZ/SoFVC1mEjYOz6Wsn8aePYvsIVEs9LoAn5MGFU7oQAq2msAvJ3dNExUnZ/O0KTr5eXCGvqAupmg3rWdGI4b2ZOSXC7dO8k/u7sAdsiWaQpd50MPT0EvHxJeKq/SG4EhzApYg5AqsslrpsInfXzIwJ/VyRj4OCcq1Pe2eV/GiFuHRvENxTD6xAk6bJ4wd77pmdgR2uu7UCyGd9tVVZsD0AYNEzheIM7VAEHIfVoXAnwQzOYk1dCI7j5eXyyuaPvLS4lSSohYfgYA6bsnPGsL+aJpww2M1EbAH15u/JemOVjHNAJH3kUKrZsTBHuIvifNcvpwqnDWexQQtXhl+DGlGzP3TfIt8nm/xi0B52gAiHm3NK+CsncV431A2zMl4RVe0VtRer5VeXyzg9ALCAFyAbbc7/To+A47A67xQh0Fi7P/R8tXj3vCacdmExY7GlKC4o9PKQswrcfzree2ERl8NRLbEMmvxB/cstym+/aTI+uiwh+ZMit8PDkVy/bCL/6+neMX2YFnZoA0f4jmcqxT/Ma2o+xUNdqgU03RQ5a6D797O8eOWQ4YsgiYPO5XuD9873QU1F1QEpgL17XhNABtQAPKKvc9kZEXAcVmecFawcLOD3auS/lhuPO9EEgZCBSO0fVrKLJif0Ya4tFi6fzPfPQNBzlCJCjA37Q09Wii+vkHEg2KrtaK/2XYEj7yKPL3DdUCacNMwTS1MO6uXblYU7g9gtto+0RW9wzOWoswo9l03iB2UBtqP90CQG9A/W+p9YItX61Ba/CWDR76stAUANwAE7wD86zLnqZAgcW4fVycDoBOJgXWHNfLRevneB750av6Roseu8vWKCZoggBmbSNxTzt033YmsmRHyOBq3bG0LvrZH/tMBn+A7VhoM50EQuf1Rv5ldThStLhYJMZJNMpIY7O3UUN2cyN64PE9SN4zyTTglXaSQxKc91x3ThjDHGNjByHGLFtXXBZ5aKb9X4GxV0jGw0rgEyoAbggB3gYwqggtHg/O9kCDgOq7NMCBbVAVn7ZrPy2BIRh4D7RC3CqyQvJByH20VePI67rUyYOtAd9QxBg1+bt8XgiIM5pJ9b75+SZAqONGNwvKGUH9vXFRVZBTUdabIW0h6amDHYc9MU4dxCTwZHAYSWpsQvcBSIM4hLi7hrivkh2Qy8T+RY7PsWbFeeqpQW7QnG/4ZVAA7YAT6mABOB6UhOnkjuzrW9CFD2knOoJYfAIb/27TblgQW+55ZJWxpUXUvpS9bDMmAZY+2eMszz59nenxSyBVl0yz4IHeCeqvcEH1nke3aZtL1RS/ErjEEQRScIMJ1e4Lp3lvfHhazJrrM+9PpyuXIPwil0P1zgX3J46rxx/J9me6cOcCEYA53DbQn8CekEArS7pwmxDy5gNHZ/L1aJz1XLe0UNWz/UxC8QBuBjCjARmA5MCqYm/hCntSMRcBxWR6JtwguOY3lt8OHF4usr5E2HVLylI6ti0q+dVVh4hb2ZW8qES8dzCDoiXRVyNLU4JquSnq0Uaw6ouCXbSdy0O4jk8tRF47lrJwvDc5hIjnBA/pD+r3XyE0vEL7coz1eJ766W60ToepQSTREFmfT1JQKirb7C0aOAoz3MrliGPHmI++YyoagvwqNWPaDX0t3Bp5ZIi3YFA2r7Dh+hC4TDdGBSMDWYIExTK+rOzTFCwHFYxwh4ggiq+vr60AOLxbmLfDjX97UKO5KUCq4BZ/hDsujzx3H/d1xGWb7L03qbJwX0d2vku75p+nZHoEFB9yQZRQ4DFYEhpxe4756dccYoNuoxAlUnVuwN3r9I/PtqPxwlAiLwfa/Gf+/8poU7A1JrrbFjnT7Adc8JGWePZrOwf4tk0/oaPiXfS11Xwl9RLPSOOOsM9zooax+u9z+y2Lf2QAiuJ1yZxCsmBVODCcI0YbJwNJEEEWeIjQg4DstGMBMlBVeFtO4z1RJWAvZlGvZRiQ6N1w+OI5ejThnquW2a90cjWXfMudWP7QAAEABJREFUFgjJo++2Kx9vVBpkk8RzPNIWbeCIyGhwBn11MX8lTh69rcwJ7JAG+nSD8kCFuGJfEEFfCxnEX7uaNOSVnq6S9jSpQeS9WtoIojdLnTWGQ9w0Pd+Fk01wiWjE5pVgaPKEge4bpgjwku5WPAn4x52N6pOVEvxyULPhdBWsMUFVu4MvLpNAGbdOOYYItJ7tYyhIz2CNt+jaJvWtVfL/fef7ZktAVPTWAVCSKGCV4sRt1gD37dOESyby/bwU/EgsLQRfJw1jLxrHDs6ig1FuILZ3WzVgmuEmzxrF3jnTO32gG4FV5AjswhBYzV3oe2mFFAjosXYGnxUK6Qu2B+6a58NuEamiSIng3YryXNeXCVdN4MbmMIjLwq1BnRiUSV9cxF5VKozozURyxLUc1L/crPxpoa9qTxCpKNTYUuBOR/WmL5sQ/aiELcS7J5G0aRVrSGlj1bMJI6WCfcq/18kPLhb/3RzjMHZgj/2OShKFOcwNpcJlk/lhvZlIsljkCHMigUfr94exN5byJX1dCD/QIbI1wWuM0giitL/rxhL+jNFsbuvP6EGkfaL67ir56Upp08E2vonURRGHZO0f65Snl0pVuwKIPSNl8NDk7CGe60qFs0Z5BA9FUiTEhvBQAYpE9oSau5vUd1bLr6yU9/s0kI1sTfoamgLe7w9yzykRRucycLKRpMAUykbWONfpRsCORZNuGbs+fbiqTzf4H1zoe2ONf1sDlgARZfrJqRjQid5e6qZi/s7p3tJ8V2brpE9TQC/fEaiuDSDYiaTPUATS8NhwXTKeQ84IgVJka5vXAY3oLVAXjONuLRMm57vdNLJJRwcFNX3+NuWxxeI/NygH/Foi8SOg0DS9sjb42FLpjRXS1gYENEcJ0hSBgPH8Iv6eWd6rJxn7RAgPFY72IAgoWF0bfLRc/GSToql6a4kiO7bvGt4Kcet5hezlk/lBvUyoLqsNfr1FweS2j67TOwUEHIeVAnhtDYXFY5PyzVbliQrxnRr/+gYVaSXsy9oal1A7TZPnFLJ3z/DOHuzJYlt5DSzgdfWhx8p9L1RLz1fL/6zxR+W2wSDDQ546nL2tTBiawyDUQk2bBerg9G5Ggfs3071IrrOtz+XQihTPK9XS31bIGw6qWN+tZGqLOkUSckj/fGvg0cXiF5sVH5xxxBB4qIG96O8N8UDsiGrjEqpBweerpa2NxjuBUWXT/0wPhcAKIWTUwQXIK6q+cHsA8L6+UsbkYoox0UAATU5JKwKOw0oXvEhXVewKPFQuPlMlrdofgoknuoDbkshNEfAad830XjieG5hJY6m3jMCa2SeqSA//dYFvRV0Ih1xIe7+71v/4EnHDgRBaW3rigqaICX1d9872njzME5WBQmtUAZd8L33zFB4Fp5DwIJEd4Gu+2x645zvfF1sDYBrZlPg18MHGebdPfWmZdN9C39r9Idy2DEcrZGi5xQXUgVJQDQpCTdTYWIDMb2d6ywZEP/gKFv6Q/vdV8rPV0n5Zg+KYXEwxJhrTjUlHB6ekDwHHYdmMLVYRtkVYbE8sFR9fKi3fF0SmwxYeoIywZXRvHMkJVxXz43KZSLLgIgb0zzcrf1kofrM1ICI7faQZoyr3BP+ySCzfGUAgcKT68F+WIS8q4q4vEQoy6CiPcLgHQWDneOowz61ThWkF7qhwA0t0j097aon4XLXU4Lfn8BGJobX1oYcrxK+3Ki0yRF1AEagDpaAaFIxqTfoWIAOQ4wa5byjlh7X+HlTQRGutT3t2mfTpJgWuCjXhAvAx0ZjuJ5aKmHoYAHqGm5xXexFwHJadeMJStx4IvbHS+FzevG2BYKh9zytaiQLrD+nE0Cz6/DHcL2dkHDfYHflhQIxSQnrlnsBjFeKjS6Vdja1yQGhFQXgi+rVHKkQEL3WihgWGypaCJYoU2G1ThR8O8yAnBX8RbjIumj+gd91k/pJJ/JCYPA42bp9u9P9pftPCXUEoGx6V+iv4It0+vb+rsDf20NH0IDxUgCJQB0pBtegeyd6Dby8PdfkE7srJfC822nsj3Nt8IPTAYt+8rQFCj95GQwwggEn/0wIfDABmAGNIVhBnnCUClGWL09AeBGDN8BQfr/XPLRc/3qgEQrrLJmhxHpfJkqcP89xUJpxW6MnyYGkclQwBzqYDobdXyXBVyFtn0NEL6WhXgsBS/3Z74MmlYvWeAAZGNuG6IIs+bxx3yXg2P5NGJh4lR6DOLWSvL+VLB7hbcSUIDF9bF3q5WnptlbzPl1ByHSzaLDphfLgnN4OCGOcXcYN6tYoiMRx8ITxUgCJQBzV2FbDGYes1kznkBOHBo8jC+8zfrjy+VNx6UI1zkoBJD4R0GIBhBmv9MAkIHEWq9a1z1z4EbFpV7WPa3XrX+tT/bvTfj0PAGj/OjGgintcgEv5nLEiKKO7n+vVU78WTuIJM2tX6XR+Bxn83+B8uFz+Ciwy2fToGp4Oyqi70+FLp3+vkg344w1bSII9+0jD2rhlCWYFr6gDXXdO9Z43henFUa7bEfkn7eL384GLfNzsCpG7PiedhOSiiJN/1hxleiBH1laTogC0n+EJ4qABFUFBpTyGJsnz3LWVCyQA3HbMmDvn1j9f5X1wu727S2tx+QioYAMzgjRr/A4t8/1nvh3nYI6RDhSBiJscBJWEE8J58SNG/3KzgYOvtNf5dzR+vJRMeHqcjKMPn5WfRv5wqIJkyIoeJclVSSEeK99HFPhw+7pPbXkWRvLDkkOF6f53yZIW4s0lFJBXZCt+U56VvKBZwQFbQi45avTh/XL0v+FSF+P5aBbrHiTUiaSZyDZU9bvLqifycYr5vBg0xIkdBSIgKgcEXwkOFyNZUrsE3SBIXjOOunszlClFsjZi0XtJerhY/WKdg35345KIn3NZOn/beWv+ji0UYCeACr1REdcYCAcdhAYRkCnKuSPrOnd+EZMrmBhWHgDZC2ZulLhrP/WG2d2q+O9NDRT4JoenExgOhJ5aIjy+RNhw0+GJttFcBDIHrWVkXmjvf9/kmf+y2BVl2FHSLpNykaK+tkB9aLK6ut/PQEyyg4MQ812+mGeeV0Bc1kQXiQUiIinNPRbUnLRimDw+SI1C3TxF+OorNYqMnEK2r9weRKVu4Owi+4SHtegVFDIR5wEhgKjAYmE27KDidoxAApFE1Xej2GIgKI/aH9A31ob8u9D1dKW1qiI5QUpEJDsLrIk8e7P7VdOG0EWx26yWENNkhv/bGKvn+ReLS3UF4nFR4hcfWSSDof2OlhF1euMb0NagSFbuD9y4Uv9gS/YSUaf/EK4FnLw/5g6GeG6fwY1qfe4IINsV7Re3NldIbq/wQFTU2FoYiCrPpO6YaH0iEx4yiHFAJgPzgYml9fQjzEtXa3ltVJ2AqMJj7FvrW7A/ZMnftlaF79HccVjvmEe+W2w6GHlsq3fWdb/W+kBKy7d0eBs3QxNR813Ul/JWlxqfkonY9UlD/31bl3gW+f67zI5WT+hJqURv+t3xXcOU+8x8ZhUPZ3aS+XSPfX+7bVB+CB2kZaMMFSeDo84YpwkUTeQQ4UUoFVX1dXWjuIt9HGxRc28DuCAkohS32qcM8N071DstmqCjGBCEH9X+ukx9ZIkqKdmRQqn/BBAazbG/o5eXSPtE2sqmK1dXGOw4roRnDgtnVqL65Qv7zIuNpJk3VY608IUIxnWC5KkGMyWEuLeKvLhZK86PP4/BuvHJv8Pkq6YXl0paDbXw0L4Z8vArsLpFOL+7runkKP73AHdvVF9CX7gwgoPtovZ/SCbtUBiO4DIomfzLcOPqc0Nflam2GaAXrj9b5H1gi7mgwHprHELsK3huyOeq8Mey547i+QmvGBAHWtU3qm6tkvDEEQ7izi61BRyOIIZk08nT9vEhwGTXO//YiED1h7R3f7ftjVcOC/7FGfnCR79+blAZZc5FIiNujd0Aj8gTqgjHsL6cJJw/3eD0kSbaivK1BfWeVkTb6dkdA1+x0GQGd6C1Q10zimvdixo8SRjKG1jsOqa8ukx6vNB7swlFgZGuK10GdGJJFXz+ZP6/IOPqMpba2LvRilfhmjb/Rf/Q8IbZbEjXQuh+OMsqE00axUT+oA2rwZZsPqE8ulT7brGiabbMMyiggPiGXwXvDqD6tPqCOJqckjoDjsCyxgoUhZ/TPGvnRCvGjjcoOn52uCh7B4yK/N8T92xnenxSyeM+PclX1svb5Rv/jFeInmxWci8FLWgrazgadIEiKOHWY+zfTheMGezJbZ8oIgsD28/NNCljDS2LDSLb2oeiQSqEoYuYA4wcKZw50u6L2vc2sF2wPPFMpIs/NEHa6DGitEcT3Brl/M1UYlWPiMpDab/7qd3HdARuSVkTrf8Bwcl/XdaXCkGyo1bqNIJCd3HAgBGODyUW3OfetEXAcVms8jtyFF+1f5vtwLI10KUzKRqRgvoV9mDumCcajA5m0u/W6RYZ7WW3wkXLx1ZXyjibV3rd6rNuhvegbSoQrJwlDezF0jFZr94fgL15dYXyWGGDY6KzAOsNDXjaRn1Mq9MugY1kjesVp2vPVUq1ofMc8uNtYeBd55ij2msl8QSYN/KMoGzvQ9f7nqqQdjTZ/ghqMsLM8aahnTimfy1OxrOGk/rdFeXSxCGPD+wQMD0OcYoVAjMFadewZ9UgqI6bA8fNfF/qQyNhySEUoZOOiZSiin0BdW8zfMc07Ps+F20hc8Sa/x6c9sVTEUTre54MICSKbU7uGFr085ClDPb+e4UV0E8UatA8p2meblAcXixW7kLKzM7oBcbCb1Nd1+zTvyUM9sU+E4v0APvqv5eL8HQHbD/7hI/pw2Pzy54xh2ZhIFTN+0K89VyX+o8YPwIESpLWxsAz5w+Gei8dz2ZzJWkMafv425aWVEs5AYWwwORgezA9GCMFsFKOLkbIW1wRE687dvAXp7TV1wacrJSzaNXU2nz0jvshhjTf53870fm9I9BfCwC0iX4NE793zmoxFG7Tt/BFzBtYMRYzrw+A87tJJfG+OolqvSzjKzQdCD5SLLy6TIAb6Y5RdBarBX5w+3HPbVGFMHyaKNbg0+vVPNvkfWixuqLf7FJIwPugzKdd1fakwY1D0x7bBGppuPBB6bLG4aGcwpe9+B62YgrcbpMkuGMtePIGD24ppJ2BvH65Xnl4uqzh2aW5GDQwP5gcjhCnitrnaeTmKgOOwjIMhWMa6/aHXV8h/KhcX7AgAlNh1dRSzdl7BcN0MecoQ941lwhmjWeyGIglgzSCmWIzDuMXiezUytkX2Pj4O7jkcdXERh0Ubex4Hb9Lg1z6okeeWizV1NuduoBqim9G9mTkl/DnjONPAaseh0JOV4usr/Ygp6NZuNBKlJK6hOGA/aZD7mtLob7YIU8OkV+8JPL5EXLU/ZON0h4kjPurLUwisvj+c9ZgphozVx+uVt2tkFTvG8JjmV0gC84MRwhRhkDBLyAkkmxudFwLg9GgUsGK3HAi9u6Y158kAABAASURBVNr4ZNzHmxQt2PYn8hLHC8SDuvFVwreU8hdN5MfmuqLSVehQsy/4crX0xFIJ/gK+08b5wIqF9Z842HNbmfCDkWyfmCN87ICqdgWeWiLiPA6O0mxZJa5rdE8sQyh7xkj2pjJ+XF9X7KLFbgi5m0cWS0v3BEndzogSooA78mVXTODCESX8JiojC7h/vM7/+FIJe3AbMQ+zAPJAGxv/E4Z4XGbUGxXtb8uld2pkF2G+AjEXMEUY5IOLfTBOmChMJUy8h7+awdkzIIEF7G5SP1prHAJ+vFFp8Osx+Y3kgcBbIkp+Fn31JO76Er443x21KQhz/+caGWvmm+2BoGafo2yWGtyRXb6umL9kAjeyT3TQhtZdjeo/VklPVUvL9oU8pM0ZK9Dvn0UbgdVYNs9LN0vU6gXIv7Nafm2VcaoQLVyrjsncgDvOAW8qEWYP9sSGdaAI7m+ukN9Zp4gB256nA9lwAfdh2fQNJfy4PFfswQL6gPsbK+SFuzDnuItXYJAwSxincU69VsZAmE28AT2grYc6rIN+HQnm+xf43q7x7xE12AFp32TDZL1u8rQRnj/O8p46nM30ROeMxKD+zVbloUW+99b5DzT/4paN3KEHtkInDnXfNdN7/GBP7EcCFVVHWheJm39tNFasvazBnabIqQXue2d5pxe4EWShJrIA6tV1occqxE82Kf6QzYEVGCGonNjX9csyYXL/6DMNtKJsOhB6okL8bIuia/Zzx5Hf8BzmtjLv2DwXJAG7qHJA0p6rlObtCOh6Qm8SmB1NJ2CiMFSYK4wWphtFs0fd9jiH1RjQv9se+OO8JpzI7LbbVcF0cHxe3M/1f8dlXFhkHAxFbUawE1l/IPTgQt/fVsg7mgxHiSE2FhdFDMqifz3De/lEvk/MITqW0z5Je6FKeqZK2tpoHIDayBqksESR0cdW6NrJPA7FonRHB5zZv7fW/8hi35YGFSsWNfYWhLFnFLI3lPK5MftfMMLZwoLtgSeWiJvBHfd2F+h73GD3rVOEfl4gEU1dJ4iN9aEHK8Sa+hB8UHRz3Puw24K5wmhhujBgmHHcEd22sQc5LDmor9wbvH+R74mlIqJr5DJtnFWYI5zFqN40dmE4DhuSRbuQh4hgABvFu+vLK+R75vtW1oUQXEQ02nAJAbI95Nmj2d/M8BblMrE5o6Cqf7lFuXeB76utAX8Q3W1g2kIC5GiKmJrvuqVMOH5w9G8Uohs6bD4Yeq5Kwk6w0aZfnAbZloK00QCv8RUX54/jerEmVo3Z/3STH556ZxOmomWcbReIJY8b5L56Eh/7cR/wAMsdDeojldLa/SHcJl1gtDBdGDDMGMYsB4Fr0sS65ECTqe2SesQVGsa6bn8I50F/LTe+chu57bjd29domAxJFGTQl47nbp7qxW7I0zorA2Nt9Gv/3ei/a37T11sUJWhz3gQCwFnMGuC6scz740I2h4+eU1UjsA96cZn08nJpd6MKx9o+DdvqDWfRh6POKWSvLhYK+5g8yY3ACsegDy4WF+4MtMamLdIJtEN9hDbjcpibyrwnDvEgGIkahFDuoKy9skJ6Y7Uf22GT4CdqQDtvIQBm/OxCz0XjTU5CQQyBbfWe4NzFYm2jao/6OgHHB2OGScOwYd7g0kNKtHF3S7X/tUn5Q7kPac5gSLdX4YBG8G7ypyM9t5bxJ49gc2OcBVZI5a4A3tifWybXNRm/0RC7olLB3K8Rg7MMX3lFsVCUF/09f6DcpGjztipwFl9uCRifRkSVrQXearSRtRHOGM3F5svAql7S3lopPVEp7fMZ6qPGxgJnAQd0+nDPnCn80GyTp+fBC0sau+BPNwd01f6kFehneqjzx7A/KuRwgduoElR1GMCz1dK+Jjs/xQ0zhjHDpGHYMO8opt34Fop3Y+0OqzahD5PDUq23aIebkv6DuEmjjA8D/mqqcO5YbmCv6MgCGZONB0JvLJefrDJO7j1UQknWxOWBAG4XeeowN3ZhJw1jkeaPGotTqA31oWeWSNiH7pds/hQxeMFZuBjyF2O5m6cII/owDIW6ViWoEZW7g08uEf+7JRAI6ZS9rpowAmWkzH4+jgP+eYLJWSQ2UEt3BZ6qFJfUBrkY8VrJmtQNEGBcJA4ETxnuMY1b4a2+2qK8skJusPtT3GF5YdIwbJh3+LYnvKZhGjsfbGNymF9PEXK9VAgmdlS8JK9AAymgMbnMraU8sstFeS6kq6IWY72sfbTO/3C5cRqFiD2qNUnGEcOwzRnUi/7lFOGKicaH42KdBQ4iP6jx4zBuca3xbZm2CwB3ObQXfVMpf8ZoNlcw8UWNivbpBv8zlcZjmeCOEiG+DZeYylzBEOD0kazpswvIEv57nT/8yUTbuUMBIJDjpX8zzTupv2EARMw/CPD5JuWt1X4YQzoEMBDwUjBsmHcM825b0SMcFnIcA7LoW0qEEdnRcVB7JxZLM99L/Xws+6tpxrE9khdRFMSAXrE7+Kd5vvfXyvtlbJii2lO9hekjmDpzNHvndC+WSqwAiOyW1QZxEPmv9X6cCeJNmLD7Hw7jZg1y/3amd0q+G4BEkcdK3tmoPrVEfK/Gj8MsCBzVIfVbKFU6wP2b6cK4PPNnF/b61NeWyx+sUxqUtGwDodSwbPquGcK4XPOsFI6DP1jnf2etX4ZfSV3hGAp414Qxw6Rh2DDvmPZuW9EjHBZmDxY2Ope5ehLXm6Uw2ahpb4Hv6eUhcRL0q+nec8YiYUFGrVXktrc3qI8tERHX7Pap2BC1l0X8/hAbHCf1dc0pEX5exOE0CkpFDUHC6J/r/Q8vNuIaeK6oVltukV+/ajJ/XQmPwzjIE0UTTHHofn+5WFkbQv4uqjX1W4AguMhThnl+OYUfmGWyDYS73NOkPrRE+nyrgk1x6hxjKcAScB564xQBJy2xCKC/L6C/tcaPYvtpLIiHS28PeeVEDiYdawPhDt31tac4LMwfpnZYb+biCRxCJNg9ahIsMFDeRU7Jc+EQ8PJJfEEm3uBbDYWr2i9qb6+R71ngq64NInPRqjnlG0iLMjCDPn8sd2OZUJzviiWJjefKfcG5i3zvrpHxrg5lY/ukUgMBsPM9YaD79unCrIHu2McmsEtFXPPuavmJKhFnkaYrORUBwmP78tTVk/kLirjY0BId4C6X7Ar8pVzcfCAUZdlotaW4aeJ7A92XNJtBLEGghHTVc9XSxxv96ciagSNYwIAvmciPyDEP7tCnG5c0TWsnRQyrqGyA+7KJfJaHVDHzbYmJLvBWI3rR10zir59qxP/YDUUNwtvpt9uUhxb7/l7jP+S3/yAMIYObIY8rMJLrPy40kutRzgieAoHV6yvl+xaLWw6qpG5zdh/6Aqs8njpvDHvpZH5YNhO7B0Esg8O4hyvE99b5KY0Azhhlb0He0PgOvBJ+2kB37CyAlxTUv96iPFUl7TqkpsOsdaT5SeLHI9iLJvI5nLmKexrV11bI87YHkgzjoUbcgomA6V46kYcZm0sQd3g3aEzHzHZqWJCfntDXhXfpPC+N6Y8jq0oQmSx19UT+tmneqQPdGdFftk4gT4FTsOcrxeeXyxsOqAJlv6eA/8PG5+YS/rLJHLLs0aEdYfxcwrdblQfLfV9sUfwBmz+QCHCwSiHDxL7M7dOEH45geVeUtzSO6pC2+6jG/+gScdNBO79yHtzDBTLgiPHEwe6ri/mxuTESwI/oBBLbry2T3lgtI9JkomUMk0npFTIIbvL8MeyZY9hMk4e9jF8w3HlIfaZSmr8zgBPhlJhZDIa5wmhhujBgmLFFr25eTXVz/czUw1tTSb77hmLO66FgBLFdUIlVeuoIz+9nek8a7skTKAyJ6ratIfTuKvmZSnHh7qCmYkFFtad6CxkQqPy0EMl1YUqB2+s2mamtDerrK6SXl8sbDxjfk2nSIzUpIANDk8Y+tFQYms24TFJGxOaDoZerRQRWcBm2CwDxIQN2f5dO5K6cxOfwVGxwhz4bD4ReqpK+3m48wZ8GZ0VABtZFQoAzCjk3bc5hXX3opWVSzYGQ4cIhk90FMsBcYbQwXcpcBLtZdkp6CdlYp5Q8JaFgdWNyXXOKuf7e6ODdRZET+rl+P8t76XhucC8aPaM4HfRrn25U/rrQ958tCk7B0oEgmBblMTgFu2AM18+LuygRiKaA/vVW5YFFvv9tC/hV3XQZR49p5z1ojsoxvsf5zFHGV87HjsaxfcWuwIOLxAW7sCO0P7oMcxyWTd88hf+h2feUokNQJar2BHHQUbk3iNt0FMRWAzLpG0v4GQVu07gGe3Z4TMiwen+6EmeQAYYKc4XRmlhDOtTurDTTsdw6q66t5cLbFN6scOCV7Tnss7BEh2TSF45nfz1dmJDngudqPYLAwd+yvcH7F4l/WyHVyzpy7VEdbLnN5SgEVr+a5p3cz0XHzA8yVrU+9ZEl4vNVxvfqqrBlW7i2JoKTuNkD3XdOE0xlQF9sA/+2QsY2sF62/yPcoI8C74BZ+GWZUJrvxmShJqrAU3y0wf/YUnGfqAGWqFa7bgdmUDeV8lYyAP6K3YEHK8T9ErKddvFsRQcsYKIwVJirKQ6tenf3m5gF0d0VjtQPb1bj81yXTOT68RTewX4ywnPHTO8pZl8RGVD1nY3qE0vFB8rT8k2+kAr2Djcxtb/rlqnC2WM4b0zKDGuyUdE+XO+/e55vRa0R1GCUvQVrA157YAZ91SQe56G9OBPzwEncir3Bexf6kOEOIc9nrwTN1CAGx5CI7K4r5ftlYJaaa1u/wEG8vFx6Z40sBdC9dZtNd4CiuJ/rxine4b0ZU0+BGBNJzEeWSvUiUgg2cY0h05enYKIwVHMgYvp37woTi+zeCkdpB0Ocku+6cDx3a5n3vCLjK1mizAKrAQfVH63zz10ofrc9EAzZn66CSEGdGOClLp/IX10qjMwx+ZgLoom1+4MvLpPfWCU3yFo6pg0saIr83iD3DVP4GYPcsfl1yNmkaF9vVnAauD61bx0AKasS0om+AnXJePanYzgcxsV2g5x7mtRnloqfb1aQMEpTPgfvHyX9XJdP5IZmR1nEYYlUnfhqs4L3MD2kp0kG2J6HIc8Zw8JEYaiHGffsP+mw/C6GKNKopQPcQ7JppjUYMBdsfOZtVR5ZLL6z1r9XTMsRGBYGxZDnjvL8arp35iCTs0iIgS3PJ+v895cb33aAxHc6lgeWX14GdcUE7pJJ/JBsk88DYP+745D6bKX0yioZsJgv4pRnHhFbUS5zyxTh+CGsizIhh/gOibNHK8TldelKb8MhQowzR3kQY+JUzkQIgkCo+5/1/rdr/BLeakx7pFyJgBrHkRcWcbMGeWCiKdPrJgTMjKKbqNYONUyX35p9wVeqJQQ1q+pCpE6kAylY+9g+zC9L+XPHcQWZiG+iZUbWDLs/RBNvrpF9AT0dMoAlfOL4vsxvp3lPRG6bIWMdItbwt9uUp5aI5XuCqpqWgAIywE2cOswzp0QYkcPQZqqTZqMVAAAQAElEQVRiC/bNFuWFamlTQ1qetAIUKDRDnlPIYlfehzcTgjAeZ/nXWv87NX7IE4sVKKRe4K1omrh0An/SUHfU+2jqxLs0BfMp6dIqpSg8bGVHo/racunxCum7XQFFtf/hJkiI9ZnFUWePZpFcRzLVFeMy4SOQz351mfjkUhHHT7hN09rg3eQlxo5YKMiiTd1ErU97fYWEFPvmQyriOwifjpLNUhcVsZdM4Pp6TWwScB3yay8tk15bKafpZDasFLzV9ZO4M0ezps+mos8BWUPu7NPNCgwjTTMCZTNY8oqJfPPPR6aJCVQhCKLrvZoYR9dTwlaJkbF6dqnxjeMHlXSdPcE7jct13T5V+MU4LsMT/ZlEaAOnuWin8cTAF1sChxQYMOrSUgpzmBtKhB+NYrM8JpYAxhvqQ49W+P6zUUE0kRYJmonm8dQNpfyPRlo+5aRq+meblW/Cz3A0D0nHC0Kq6yZyxw/xWHmrRkV/abkMMbAzTZMjAebgfkkRd8Jgt5O3ip1lEzON7dSjajI91OxBbhwkp0NrmGB/gbpiEn/bVAHOInb3hUgK8d3rK6VHl4qbDoZgvukQA2ThoX44zHP7dG+J2ScT0QGJqg/XGomzzQdV3KZJDOx3puW7bpsmjO9r/r0LYb40Rf5gOHvaMA/ETocw8D75AnV9CT9zkCfMMeoVTHc1qjhtWLIrgLeTqFYbb3NY6hfjWOStYoNuG7l0XVKOw4qeO5oivjfUc/5Y1mXr/geeyEWTJw123zhF+P4wT6YHaySatRzUkVH+a7n4wXqF1KJb7boH4UEZ9DWTuV9M4LI8sT7T4LOjQf3bSvnvq+WDfnQ3amz/j2XvYUg4zSuLhWHZjAkcESzRClEhMMQenEnDfUQ0pnoZ1InROcxVxUJRnsmDb6AOdvBWT1ZKq/el6/FUcEFx0QQMD+ZHO+sScJgVBxgTVDw0OXuw56xC1h1vHZkMNK3CikeaurAPM6eYu3giPzzH5AwOW4wtB0PYij5RKe1tUt1YoKa0UquEJAxN/mS459ZpAhJnbmxNYwjCaS7eGbh/se+rrQqkSJN9QJI+AnVjsXHaYOq7Y+QyKiAwxEY49uMRHoYhQMSoTe0/Mv3T813XlvBjc03mBbTxTrNqb+jZSuP5OwCCmjQVGBtMDoYH80sTi25ANk0G2eWRwVvcj0ayPxvL+gkCb7BJ6wNzRx73tOEeZKymDfQgpog1ehyNf7HR/8xSad6uoPGcV9LM4g7Evi5XoC4u4s4rMk4kTSMrZJTfXiU/UyXVNmnmyzcuiwQbsdEdn8vMKeHLCsy/dwF0an1qvWTikSB2fgZ93jjusvHGb3lBKXROuiB8xNRcNpHvn0GDciwdhIFr64LPVovrDqjYzsd2sKUGBgYzg7HB5GB4ttDsrkQch2U5s3Aupw1nLx7HMcnGWSRFjM5l/nqc9xdFxm8Uxlo83NnquuBTFeIbq+WtjWl5ziusHkmRxf1df5ydcfIww2mGKyNfEeJV7TEk+WyLAgcaK2pk51SuEeIdP8h9c5mAYwdTHwFMKnYGHikXn1oiVu4JQrBYdpiaE4d4oA6UgmqxHRKpAZGzRnl+Po6DHzftD0mQX3+6StqXhp/PiOQIA4OZwdggUmS9cx2LgOOwYjE5WoOUMHYf549hsac7WpvYVYabvLCIQ2A1NJvBXiZ2ELLa/1rvf6LC+ImEoEkwETsimRq8e2MZXDSevWWKkCdQpm/gOAH8couCXc/K/e3+jc92yQQ8f17EXT2Z78VSpt5KCenfbFWerZK2HFJX7Q89s1SEYBAvlgsUgTpQCqpBQagZ2ydOjYsizhnNnjfW/Ie5MBDeauHOwMvLpX2iRpIEatJUYFowMJgZwEkTi+5E1nFYbcwmFsPpI9jzRrNCYoklrByOIWcXuH83y3vaCBYrM5aBouobDoT+ML/prdXyAT9GxHaxpwZroKQv85sZXrx7m8qPZbm7SX2kQnxpudSQzucnoM+wXvStUyGJh3PFbouNfbdP0V9aZnxbjg9pcAwgiMaADsEgHoSEqM11rV6gFFSDgqX9GCjbqs3iBnDncdTFE3irX6/AuKCqv7dGfqFaggPFbfoK5IdpwcBgZunj0p0oOw6r7dnESoBxnzmSxbt6nN5YCVhoI7JoBFZXFPM4+aJjFib6NCn6+2v8f1no23pANZZpHIopNGF5e93kD4Z6rikRkE6mYiQBbQizcEfgoQqxfFeQxA2q0lMQTE3MY26YIpTmu0wlAdvdh9RnqsXPtwYCrfNSEAziQchFOwOmcSgIQsFrioUfDGMzPCQUBzWrgtbeHvLKyfxJQz2YVtNuYlD/70bln+v8MqbTtIdNlTAnGBVMy0oSm/h0KzKOw0poOhEUnDaKPbvQ8twQieRsjjpzpOeX070nDfOYfnIYW5slOwMPlfs+WO/3KTqWcUK829kJnkcjiVG9mV+WCeePN3JnVgTgGZAk2t6omj00ajWoffXY6SJ2+Nlo9tpSoSAz1oEb1LALXbk3+GCFuGhX0DSKhXjbG1Scn763Wq5tgtTGqKj/vTjq/CL2tikCFIf6ACGqA24hzMgc5tZp3on9XFY+whfQ31whvbXGD9eGIekrgAXmBKOCaaWPS/ej3BEOq3ugBhP/0Sj29OEeEYbfWiV4q9E5DA7pcXqF03q857duN+6QCvlnjfxUlbSyzviaN7OIx+iW4n+sZp0kfjTcM6eUH9fXFf+AHGcJF03g8CYv6oTpCk9RGKz5TJa6eDz340LW9HsXQF/ViC83KTiX3HZIjXMuCbg0Vf/XBv9zldLG+hDUxNioAmWhMhSH+gAhqg/mqLA3c0MJb/q8bpjUAUl7Z7X81TaEcunAI8zEeIUJ/XikB+YEozLunf8JI+A4rIShIgiWIc8azZ410qMegQ1rknNT107m75guFMFBwAfE0ENy/bttyv0LfP/aYBzAmYcZMaOSqIAjHYw80RThF0X8gMyEHnvtzVHnjuHmTOKzWAq6JMHUaghW/JDe9D2zvDjOMz1zwMC9Pu2tldLrq+U6STNDDl1aFV0nVtWHHlksflgjY+PWqu3IDRSH+rdOEQAFAAlXQxjsjm+aIqDVKrCtl7VnKsXPtyjgAv8YHpiOVxgPTOiMUSzMKR30uzfNIyuve2tpn3aI5M8bw50xgg3oREAjpg5w3TldOHmYB8l105VgfM/cMumV5fK2JhUeIX0rAe/Vk/u57pgqzChwu+h2KIzOpxjfkWB8FxgWdjtGWndF8uekIZ5flQkFWeYfqMbQOlF9vlr8z2YlqBKJw4KedbL2j7X+l5dJu5pU0Ikt0AggAAoAAlhQjh/kvqCIM/1YdXj4zkb16aXi8n0heKtwTZpeYTYwHpgQDClNLLo3WcdhtXt+vR7yvLHsz0ezN5TyN5UJY/swsa4KKx8Zq083Kr+f1zR/ZwDHXlhp7eaU2ABQ7oNjr/H8zVME4/s5cR8zEKdd6+pDECmmxajAkp7U13XbVGFSHmO6nyUS/0cQ2P1dVMRdNgkOwtxxYrNWuTv4l0Xiyn0h08es4nODfqAwf3vgj/N8S3YHoVpsf8wIoLh1qnDZRP6no9jLJvFWz9PjXWRHo/pwubhqXyiWjr01iDTPGO6B8cCE7KXcc6g5DiuZuUa65Jxx3PeHenAROx7eakeD+twy+aUV0j5fur7yAXzBCMFJcV/XdSX8qSM8OBZEZWyRAvo7a+Q/LvC9ulLGxie2A2qwwkflMDg+S8VnQZ5+AgUiSNCYIgNGQVVfsF15rFJEHh23SRfwavBrjy8VoRoUNKXDMySC33PHcYLZgxThIWvrQo8vFnc0wQeGK9L4eupQ99ljOStk0si4G5F2HFaSk2kVidRL2leblbu+a5q3VaF0wqpbklwjhmkE0YenzkOgN9VIn0W0HL1E/LKiNvjwYiN9FgrqX25WHq8Qdzcam9OjnSKu+nppHOedP4aj6fZ9+BruAy5v+gCEad7ifi6XWaIOfQ759TdWyc9Wy3LAnm8ZU4LIxCtQEGpC2QhVjl4iIjt6E3EV1Ijq3cHHlohbG40fSYtosf+SockfDvXAdVoFevaz7KYUHYdl28TiwGtTfej5KvHF5bYtSCvhEA8M60XfWMLjAA7hg+malII6nObjlVLV3lB4b4Zuq+tCz1ZJa6y/dQDJuNNGeS4ax7YrDU9SBLLaV07ih2TT8FymYu88ZPyK4n82KgiyIIlpnyQqoRoUhJpQFionTmHRDgUh8H5Zs1EYU+6SRuBwGSF5t8tbmaqb3koqveR7BnXEDgdlDSfiDy4WsXg0Dafq6dIcgZWLIc8Zzd4x3Tsmz4W0SCwnuLNdTdqTi0UsyEP+VgdwiPhq6kOPL5EW74x+RLOFDmieMpy9c6qQn0FDtZZ60wtNJ7wchfw6stqZrLk5IZZZuTf42GJx3s4AvAOKKamkKxmSgJpQFiojEw/145NC2uuzjf7nl8l7RY22XZrWvHEugDPBc8YY39TYusW5SwYBcwtLhlIPHqNpBLLI767zp/vtGt6hj0BdNYk/byzXh4fzMQcdSaInK3xL9gZND+CwQg8q2ovLpU82KObjCYKhiFF9mJum8BNyGbhIq24hnRjdh7m1VCjJd1s9AAmZ/7dFeb5awjlpWh73ahYOSkHZir3BLzYpVnvD5o6GCP+okd+p8SuhNL6vhHkpGnH8IM8ZhayHCVc4r6kiQKVKwBlPEDRFTBvoPr7AjYv04cEy5OyB7j8fn3H8IDdlMW91ovb3lfJz1fKmhnh5GZJASKK/vUZ+faWM1LWVzMN7G8+FzyowfwAV8nxvoPv2ad4i67PFg37t76tkOEfEMmBqxciWeoYipw9wI0/kwS7RgmJTQH9zpfTxBsUXSLu3whydMNB9+UQOx6YW4jjV7UbAwvDbTaenD8AJ3c/Hc7MGuNvcQx1Bqh1/QbN38yPjVxXzsH7TJBECmV2H1EeWiv9c70eSKBHquk58ssH/0jK5CZGA2QC4GOh1+ST+tBHGJ+8gRrgXLjiGPGMUe5nxvQum4hiBDM4fnqqUPtrgN27CI9PzCnlA+NRh7isnxzsQlIP6myukTzcpbe4ZQS3FApFgDDAJAJgiKWd4JAKOw4pEI6XrvgJ18UR+1gCXjXEW3BBDEccjkJkunDjUY/oRRawNJJvhen4337d+fwheJnE1QH/RrsATFdLGAyH4L9OBmR7q3LEcEur9vRSWOnaIw7Pp60uEnxayVqsR5w/L9gT/stC3vDaYbm8FFbI91C/GcRcU8VkeS3ve3WT8EtJnWwPYOZqqaWMlDABmAGOASdhI1iEFBCwnGG1OaS8CmR7y/PH8zAFui5ClffTgHTJY8oyR7CUTuRG9GauUFQKr11dIb6ySfbKWxHRiSNXe4NOV0uaDISx+UxEZijhusOf6Yn5wFm1870KJMMXaLwdUfcmuwHPLpG1xt6WmjNpbCWcNp3lREXvqCI/LeieInekry+XPTTWeKAAAEABJREFUtwWsn8dqL2fL/ph6GADMAMZg2clpSBYBmGuyQ51xZgjgTfXSSfwJg9wpPjeNFNTYXObumd6zxuKAyXya/CEdh30PLPJ9udX4KRcrj2YmZqs6DNzeqD5cIX6zVbHKWMNnFea6fjvTe0uZtyCLxpBWJI7cNCn6WyvlZ6ol7Aet+hzpm+pfhIQDMug5JfzMweZfoxpmsHpf8InFYmVt0NqhhTva8IpJx9TDAGAGkeSca7sQMF8JdlHvmXSM9/zx3PcGefBmmwQCiBrgrc4tZG+eIgzLZlwWUyQG9HdWyy8tk3aLNjxJBCZ7RQ05+K82K1Y5Hmw2+/BUhgd/zdWq9amvIUm02fiMt2Un86HtrkX42YujcI5Zkh/v9/u2NoReWi6v3B9i0i0QQWC6MekXjedgAO3WxxmQGAIw1MQ6Or3agwAW9iXj2fG5DNHOdYKopLA387vpXqSNQMSUJyKLlftC95f7/rNJaVBsO+2CKYhB/fWV0kvVEgIlU9ZWlYjLaupDf5rvm7cjgH1lO5W2ompZD58+sZ/rD8dlwKEDMdN+6IPw8+FycWf6H2Q3BCAJTDcm3WrWjD7O/5QRgJWmTMMhYIZAJkshUV3Uh8HKMWs3qXPTxNR89w1T+Mn9XVYPNCJn/L9tyqNLjA/rwnOZUEmtKqAR32wLvLFS2i8hvZ4QLSj47TblscVinZjGD062iAJ2k/u6rivmB2RYWi8c6Mq9wZdXyLViolq00E/iAiJhojHdmPQkhjtDEkfAcsoTJ5Hunl2X/uBe9LUlAkzZKgpoUQ0Wn++lbygRri3l+3nNnRUilz3G96/7nqmSmvzpfUT7q22BB8p9+3zYeLXIaH7RIGvvrpafR9JKTrtrAEo0RZ45kr2+lM/lLU03qOrfblUeqhAPpl8kgILJxRRjojHduHVKWhGwnPW0cu0hxLEzyhOoiydwY/swcDemWqMemdrjBrqvK+GnDXRzFrkWdKvcHcBZXnmav389LCRitwN+vSkAFxGuMH+Ft3pjpfz+euMLhaGseSf7aj00eepQ95ljzH/aI8wHCbh52wKv4sxUaUP4cP8UXzEvmFxMMSa6AxBIUdpuMNxxWGmfxCHZxu8vjDH7jAsCmP4Z1LUTuauK+VF9GCtR9vq091bLjy6RkCeycGhWQ5Opx0KfNdB91wwvMkRxFuGyPcFHFotfbg8QWnszde2WCn7B4yIvn8idX8RZfQYIRH0B/b3V/pdWyHLQnm+DAM04RSMITOsNUwRMcZxuTpONCDgOy0YwzUlhzffmqKsnGz+GjtxKSyeY+6gc5pYpwknDWJaxfF58y8HQc5Xihxv8AVXvgNmCHN8f6kE6ZlAvGtct0kZeqBpRsTPwbLW0pj7khnqRbSleWwznWfLyCdxxg90expJfo6J/UCPjIAJbQstOFvSTqMZUjs1lMK2Y3A5gl4SE3XJIByyBbolbu5UamEn/skwYl2eEUQhheDd5/jjutzO8w3sztMUk4Mzuw7X++xb6Vu0PwUeke1VAKsFD3jhFuGISl+GxclZEk6L9bbn0VKV0QLbhcYpEcPRy1D2zMo4f7GGQLrIYcMivPVspfrZZCWm2HZtasDpcjanEhGJaD987fzoEAYu10iG8exqTLJZCmDCsFz04i8Y78zmjjd/RswKhTtKQHnqvxo9cklUfG+vhrSDYjaXCzIHuOH4BR4d/WyF/sUWRQxhhI39zUuAxNJu+fQo/uBdt7awIJNdfWykv3RMMImo1p2RnrSFVL/qKCRwm1E66Dq0EEHAcVgIg2dcFyY5fTvf+fnbG9AK3FVUlpFftCf7x26bPm+MFq2521WP5sTR5XIH7zhneyf0sP7uCHdCG+tCf5/v+t8140sou7nHo0BQxOY+5fap3TK6lVDgcqG3S5i4SIVUcUjY2Ic4dkkXDsw/ONoJlGyn3PFLJaOw4rGRQS3oMzD2XpzLjbLgC+ofr/I9XSnvS/91y0ALeyk2T545mL57Ix8/FlO8IPLZU3HJItU4igZ5tJagTODm9dBKfK8QJrYjth9Tnl0vr6jviQXboBrgGZdGXTuAKsmhMJWqc0sEIOA6rgwG3ZIcTw1V7g48v9r1V4xeV9D5mFRYCTgHBwi1T+NML2SzWcgEiV/VhjfxYlYjDSneH2AtJk2eNZC+ZyOdn0GFRY18R8dXUheYu9FXXBq2/oyF2XPI12G7mZ9K3lglj81zJU3FGpoZAhxhgaiL2hNE4hp+/VUEme9k+49zN0nnYhwW81dg+zJwSoTjfHSeGqZe015fL761TSI3oAKkQwgQI4oKx7FljWNPv0mkBoGJX4KVlEjJ9ltvFlq52XGDv2TeTvm4yD5/VATjYIXL3pOE4rGM8r5pO7PFpT1SILyyX6ttx7pa82HAKDE2cPYa9c7p3SDZttbfBEl1eG3y43LdgVyCI8C95homOhGCZLHVDCf+Tkaxg/bhEQNXnbVNerJa2N6pWwifKMrF+GkHkZtJ/mOEttH5WLjFKTq9UEXAcVqoIpjheCmrv18hLaoMBNUVKiQ7PcpMXjOXOG80hlWY1BhuuqtrgM1XShoMdJRZBCC7yusnc9wZ54kR8EPh/WwOvrpR9CBFxk/4CNzooi76puI1sWvoFcTgYCDgOy0DhGP73uqmzCtlBmZbJGhtlgyMY0Yv+9Qzvj0ayLguGWJ/Yn765Snqg3IfslY3c45AC09G9GRxTluS7cTho1VMM6P/e4H92udTYIR+7gRgQrMBL3V4mjHZiK8DRCYrjsI79JCAt8vNxbJ71p3lTFxELL6ATswvcVxXzI3IYy6dCCWK/qL2yUv7XBkXFRih1xglQAJ/hWfSVxfwoCGbdP6gS8FYvr/K79I7IpoUF6ctTPy/iMEHh22P16vBtQcBxWC1QHMuLyf3dN5cJ2RyF1Wu7HCGdyGLJS8exV5bwQ7MZK/rYBq7fH/rrQt9XmxV06oDUsk4Q2HCeMNh9+3Qvtl1xElJ1ovbGCunva/wu5PysFLC1HhOB6cCkIOizlbBDLCUEHIeVEnx2DaZIAoHPlRM5weK3SJNmhFRPH466ehJ/2ijWY+0S4DsqdgZeXCZt66hMNjSCU5g10H3JeK6PEM8OD8ra26vkz7YodmMDESwLJgLTgUnB1Fh2cho6HIF4htLhwvRohohoSvPd98z0eljjx2lswQJuaOoA192zvGUD3G5rb3VI0T9Y43+6StpySO0Yg4BgyFVdWMRdO5nP8MTjufVg6Jmlxk9Gd1RoReBEFFOAiSjNd2NSbJkIh4hdCMSzFbt4HFs6XYg7UkuDetE3T+az7chnuSjiuEFueISBWRYJ9mZokGJ/aZn0wXp/QO2gjw2DLe8yHq8/fQTLxX2Mqk5Un6mWV9S177fLQD+VAvAxBZgITEcqdJyx6UDAcVjpQDV5mnhLL+nv+u1UAfu45KkQRG9sAycL15YIvaz3UbpOrNoX+v13voU7Ah3zpFVYI8h2Ywl/xmjObe1IIVvN/tA9C8U4Pz4WpmbvK2AH+JgCTIS9lB1qtiDgOCxbYLSTCN7Yh+Ywl07g+iUVZyFphUO3KyZyxw9xI8iykgyHgCtqg48tFbccCHVYmgZJq74ChaRVcb7beodq/PTqtgb1rxXino75/YgjGOFMELADfEzBkTrnb+dCwHFYnWs+wtLg7X1KgfEIguAmscjDlW2+GokhmjxpkPtXM71TBlh+GwToSEH93dXyAxXiIVnrSG81rPkpsOkD430YCIeV320N3LPQJ0M2yNqukmxngAyor5rMA3aAnywZZ1zaEXAcVtohTo4Bls3YXNfPx3IeBpdt08CSQ1zws9HsL8Zz2HPFGXBA1t5fI3+0UVFCcHFxOtrZJKlESb/mn7rJtN4HEgS8VdXu4N9WGr+yYSf7tmgBZEA9Li9uRq0tIk57ByDgOKwOADlJFjhHO2mY545pAs2Q8c/I0Do4k75zmveMQjabs5xTdNtwIHT/At+/Niqq1nEpdnA6bZj7pilCnKfAgBGy/u+tlp6uEn0BjEBFRxRNJwAvQAbUALwjWDo8UkDA0rhToOkMtQ0B7NfG57mumMCx1ifsqk4MzaZvKhMm93ehfxzeFbsDTy+VNnfUswthSRDF/WS45+dFHPZc4RrTV4R7X25WPt4UEJGEM+2RnkoAC3gBcnzo0sPcodpuBCIcVrvHOgM6AgEspBOHeG6fImDBY/FHsfTQ5E9GeX4/O2NwFo2eUa0tt02K/s+1/gcWibua1JbKDrjIdJPnFHoumsjHOayEGP6Q/nS19NIKGYeVCW2AMSblAjABKYAFvHGgS5mPQ8BOBByHZSeaaaKF5TS+n+uCsVwvz9HlrBFEloc8ezR73lguwzr+gkhiQH99pfTeWj99dDSq01sgHs+QZ45mzxjNxed0SNH/vsb/3bZAvORWfBJJtQJMQApgAW9SBJxBxwABx2EdA9CTYAlfc+JQz7XFwmHfRBKjmk/cflLIsnGz8mv2hR5Y6Pt8SyCErWMSjJMagl3dkEx6zhT+9JHxxEP+6ICkPbrY9+/1/rhKJCVE3EEI/a4rFgApgI3b0WnsXAg4DqtzzUccaRiKmNTP9ZNRrEYRMwe4ry3hh/dm4kQHcAc1+4LPVIsr60Pu6HmOwyfVJnirfgJ1TTE/uV+8RyvAZlej+spyaWVdqIMP51w0+dNCdmI/F9OBsEBfp6SOgDNjqWPYcRRoijh9pOfBEzKuLeUH9WLiMJaC+vtr5L8sEmt9WkduteAlS/u77p7pHZnDxHEH6LbxQOiJCrF8V7AjTRB5K5IkLpvAnTqCBZhxAHSaOicCHWktnROBLiYVQ5GDsxnk2uPIXS8ZX2/w4Xo/ktkdmLYyJBqXy1wzme+f2YaT3FAferFa2tKown0YwzrqP0MRZ41mvzfEg4uO4unwsRMBx2HZiWbH0IrjgxC57Dikzl3g++9mJah13BfdQXFsTk8d7rltmtCHxyUqzAsyaUv2BOcu8m1qUOMoYj44hVrEVtgJXjGJP3s019NiqxRg63RDHYfV6aYkaYGwJpfVBh+tELc2duizCxDYRZHfH+I5bxyXFfe7YuBPl+4JPFct4eCyI70VJOQY8icjPScMcjuxFdDousVxWF137lpJ7gvoH2/w/2WRb9uhDvpOqzB7REyCm7x8InfJRF6ImzxXVP2rLcp9i4wPMHawt8JB6sVF3JmjWcY5FAxPW5d9dRxWl526CMEPKfrbq+VXV/lJnYi3H4sYYsslYjpsAH8xjj1uiMcVN20VgLfaqEBInBR0sLfyMOSPRniOGxLvKwxtQcMh0gEIOA6rDZC7RPPmg6EPNymU1nEfwQMs8FZ5gvGLMicOZV1x7ahR0f9Z4395ldwYwCAM7bgSIoiLxxuxVbyvs+k4cRxOqSIQ19BSJe6M7yAExue5Thvu0TqI22E2AzPp64uFETlM/JgOsdXfV0mfbFIQWKEcHtwhfwDI94d5jh/sdjk7wRcA4TEAABAASURBVA4BvAOYOA6rA0BOOwuGIq6YwJ0zlu2Yc0GSJApzmLtne8flMbiOo95eUXtqqfTFlkDHP2ABKAAIYHFiqzgT1OWaHIfV5abMXGAPTZ45ksVRHRM/4DEf3Y5ahC3TB7jnTBGyrb98OUwOR4FPLBUX7Qp0fHwDEAAFAAEsYWESenU6dXoEHIfV6acoYQGRXb5oPHd2oSdNzxkh/+RmyNOGueeUCv3i/jAXRN5wIDR3oW/d/pDxhce478AC9QECoAAgHcjWYdURCDgOqyNQ7jAenIs8bSR74mAPQgx7mcJbIVo5a5Tn3LG8K+6BoK4TuxrVF6ukdfUd+ms3YX2hONQHCIAiXOO8dicEHIfVnWbT0AULFcHFmaPtzMHDW+Vw1CUTuJ+O4TIivuLG4Nf6P3ou2R18qFzc2NChD7KHpcB2FYpDfYAQrnFeuxkC9jmsbgZMV1aHdZE/GcmePMxjy2MO8EHYW105iT9hsCe+uWg6sXJv8NUV0vYmtePzVlAWKkNxqN+VZ8+RPR4C8S0w3kinrTMjABdz6QTuhyPYFH9oAvu7gVn0XbO8pfmu+DtBoPHZJuWRxWKdpHW8VUHNE4d5Lh7PQXFI4pTuikDHm1Z3RbLT6YWU089Gs9MHuFKRbFAWfUuZUNibiU8kqOmfbPS/tVr2BRGQxe+bllaoedFYjmM6+EmvtOjiEI2DgOOw4oDT5Zu8bvLqYuHUYXHTTmZahr3OcQPdd87wDsqkYx62ajVGCenvrvH/fdUx+DYbyAEXBQWhJpTFrVO6NwKOw+re82t87/s5Y7lp+a52PZ7loojZBe5fjOdz23p8wafoH631/3uDElTDXq5D8YRSUA0KZrXbJ3eonA4zuxBwHJZdSHZeOpke8opi4eShHiR62pQSXoeiyHPHcJdP5rO5+KEV0eDX/rZM+sd6RUO+vU3SdneAOlAKqkFBu2k79DopAo7D6qQTY69YWNLnjeOmDXCH4tKFt+Jd5NmFntNHegQ3Nlvxeu+XtL+vkuftDGjIzMfrmJY2KAJ1oBRUSwsDh+gRBDrVX8dhdarpSKMwSPFcX8Lj4N/qGxMQJHk91LUl/NljODfdhrfa1aQ+uMj3zbYAJG6jK3rYXZDZP2WYB+pAKbtpO/Q6NQKOw+rU02OvcFjeF4/jZg5wI5KKpZznpa6ZxE3LdyMxFNsaWbPpYOj5KmlzQ0d/r2lYBo0gSvoxF47joE64xnntOQg4DqvnzLWhKTZ6l07kZrT2WQiRBmfSd8/0Titwx89aIQrbeCB030JxzX7syQyCHfwfrnbGANdVk3jHW3Uw8p2EneOw0jsRnZC68R2h47nxfZiwb4ILmNjXdV0J3y8j7kcECQKpqqrdwWerpIN+DT6u41WDwBD7wvF8nrcNUTteNodjxyDgOKyOwbkTcYGvyROoq0v4afkulSRmDXDPKeGH9WZQH0fKgKpX7Q48WSluacCgOB3T1aTqBASG2BA+vqjpksCh2wkQcBxWJ5iEYyFCXy+NUOWqCfyFE7gsrg0zgLP4ekvgheVyU0BvKx2fFmUgwNhc5sIJPMROCwOHaBdBoA1L7SJaOGK2GwEEKbkC9YMRnhy+DRvwBfRPN/hfXSHVy9ox8VYBjSgrcN9UKuTybZ4HtBsHOwc4tNKPQBvGmn4BHA7HEgG4rfjsg6r+3hr5vRo/Ypw2O8cnlVwrzgTH5zFXTeT6tPXMfXL0nVFdCwHHYXWt+epQaQ/K2ivL5U83KXIIqfkOZR1mBi9Z1t91Y6nQm3NiqzAkPf3VcVg93QJM9Yd/alSMB9m/2qaYduiYyqFZ9M+LOGxdO4adw6XzI9BpHFbnh6onSbi7UX2uUvpsa0DHluxYKK7rxNg+zLXFfEHmMcmbHQudHZ4JIOA4rARA6kld4Cl2NqqvLJMW7wm29bM46cIF8R381OUTjYct0sXDods1EXAcVtect7RJraj6R+v9S/YGj5VlIG81Moe5uUwY1It2Eldpm+euSvhYmWVXxavby80y5E8L2cFZNMKctClrSRhMB2RSc0r4wb2cZ9ktUerJDY7D6smzb657fgZ9W5kwJofp4PwV2IEpWA/IcPJW5lPj1DoOy7EBEwQGZzFXTuaGZnZomAN2YArWJgI5VQ4CzQg4DqsZBuelNQIkSQzKYq6YxA/pkL0hdoJgBHZgCtatZXHuujYC9krvOCx78exW1JD8xlFdb46CQ0mfYiAOFmAEdunj4lDuHgg4Dqt7zGNatKApYnQuM6eU75tB6/AraWACsiAOFmAEdmng4JDsVgg4DqtbTWc6lCnKdd1cyvOs/XEWfCDIgjhYpENyh2b3Q8BxWJ16TjuDcBRJjOzN/Goqj9NDuBi7RAIpEARZEAcLu8g6dLo3Ao7D6t7za5t2Y/u4rivmc3nbDAakQBBkbRPRIdQDELDN/noAVj1aRQRBo/sYH+7DcR6Co1SwwHAQubaYB0GQTYWUM7anIeA4rJ424ynpOy7XdekELstNwukkRwgDM9zkReM5kEqOQrcd5SiWAAKOw0oAJKfLEQRwkDc2z3XZRD4z2Q9GY+AVE/mivi6QOkLV+esgkCgCjsNKFCmnXwsCUwvc1xfzBN2+OAuxFYZgIIYfky8vbZHfuei6CDgOq+vO3TGTnKGIkv6uW0r5jPbEWeiMIRiI4cdMdIdxF0eguzisLj4NXVH8snz3nMk872o7zkJshW7ojCFdUVNH5s6DgOOwOs9cdDFJECgV57uunsT35eM9UwpvhQ7ohs4Y0sWUdMTtZAg4DquTTUiXEgepqCkF7suazw2tBMeRIjqgGzpb9XHqHQQSRMBxWAkC5XQzR8BFEcUD3JdO4L0eE4+ESjShA7qZj0+m1hnTcxFwHFbPnXu7NIejKitwX1jEaySBDWCYLC5wi0o0oUO40nl1EEgRAcdhpQigM9xAwE0T3xvsvnQ872YOeydc4BaVaDJ6OP8dBOxAwHFYdqDo0CAIkiROGea+fAJPUyQKLnCLSsL55yCQAgJRQx2HFQWIc5s8Am6a/N4Q92UTOBRc4DZ5Ws5IBwEzBByHZYaKU5csAhRJnDjUg4KLZGk44xwELBFwHJYlNE5DcggwFIFCOP8cBNKAgOOw0gBqpyHpCOIg0M0QcBxWN5tQRx0Hge6MgOOwuvPsOro5CHQzBByH1c0m1FGnpyLQM/R2HFbPmGdHSweBboGA47C6xTQ6SjgI9AwEHIfVM+bZ0dJBoFsg4Dis5ml0XhwEHAS6AgKOw+oKs+TI6CDgINCMgOOwmmFwXhwEHAS6AgKOw+oKs+TIaCcCDq0ujIDjsLrw5DmiOwj0NAQch9XTZtzR10GgCyPgOKwuPHmO6A4CPQ2B9jqsboiPL6DX+rQ97Sn7RK3Br2GgqnVDQByVHAQ6LQKOwyLmbVP+PL/pD/PaUf70XdMD5eIjFeKzy6SPNvi3HlIDqq532kl2BHMQ6C4IOA6L8Af1g7LWrlIrauvrQyv2Br/erLy5Uv7tt02/+9b37bbAXp/mxFzdZWmkS49Dir5uf2hNnXlpkJ2gPR7yjsNqRufwT700Xyfwgu7hQpMEIqtQUN9yIPToEnFuuW/+joAU7CbBVgJIOF3ajcC6utCDi8V7F/hiy58X+pbvDbabYk8a4Dgse2abIgk3SexoUJ+rlp5dKu6XNM3xWvZA292oaLquhvSgalJCId0xm/jzTcVvdlrbhQACrpCqz98VfKFS2nxQbddYp3MPQoAkSMKkGFWE8y8eAo7DiodOcm0MSSyrC765Qjrkd6Ks5CB0RnU4Al2EoeOw0jJRSGytrA/9e70sO/mstADsEO2hCDgOq42Jx5mNqhNRBZVtxk5A9uvtgdX7Qm0wcJodBBwEEkYAyyrhvj2yY4FATcihx0eUsdn0IC/lYchAW07roF//epuC9GqPRM5R2kHAfgQchxUPU5IkfjyS/dXMjDsiyp2zMlDzyzLh56PZTJYyvJYFDSSzFuwJ7hMRkFn0MKvGdjKkEeGCyM6sS1rqwFcJ6djD4jVxBugsBvRGRfMpuj+kd6TAiQuZYk9McUDVxaDepGgoUtDQNPnjPOTbrQWK22g9rMe0OA6rjal20QTvJiOL10P291KT+7vOHMv+aio/Lpexsl0Yn6YS1XuDbT5NKof0XY3qij3Bim3KvM3Kp+v9/1kvo3y5wV++TVm+J7jjkGrFxUqBBr+2rUHdfsik7GhU4RBbBsLLgP43m/3/WCPjrOCzTUpLk9UF1vDWBnXxduX9Gv+ry6Wnl0rPV4nvrJK/2ODfWB/C8m4ZiJ51kqUk0BodWjqHLyDPXp9mKvm2Q+oBWYsDBRwutDMf26DC6YRZJPgKlIDhwq3KhzX+15rVhKavLpP+sVr+eqN/XV0QzisRUtCo1nd4IuI/8gLtMBeR8uPWOb1pAdlxWC1QtPvCRZGj+rjmlAi9BcpqCXE0MX9PMGTWjMVQL2nluwJ/WybNndd0/0LfI0vEx6rkZ5dLf18jv7XGj/K3VfLjVTLq71/ku++7pvfXyHuaWvmaOEJ/sy3w14W+B2IKGD20WGz0G3EfnEW9rL1YJaLyhRXyvzcqX2wNVO6J9+wixF61L/hMhfjgIh9k+2iD/9vtgaraYPnu4KeblVdXyw+U+x5Z5Fuz/7DbgrP+9zr/3BgxIBiYPlkpIbKL0gJO5/VVMjrElvsW+L7arATgAKLGHLnd1KA+Ui7GDkTNPfObNu43nYojgyP+NgV04PDoIt8Di3xPL5M/WO//ZnugsjaIgouPNykvrpQB41/mNcG/txlEiwHtleWHNfrXer9sIT+g+M8mBaJGlkfKfYt2tv0WEiF7d750HFZKs4sYKlegzi5kKWsgG2UNTiGSDexyt097c5X8ULn4+GIR63ztQXWPqOH9P6jpMObIghUmBfW9olZdF3pvrX/uAt+bKyUsp0iCptdNQb1W0vZaFLXZhyJgeWKJ+NXWALrBE6EOLkwn8GJKkvAF9P9s9D9aLn67I7BP0oKqHh4S7o1ruCdk7ir3hh4pF9+t8YMmmg4pOrQDi+giavtlDIpmh6p6v7nk0AgyAECQNS0BVYdg0Ywkg9puSVOArOmwiEpIs7NRfbZSfHKJWFEbBLXDaqLB6GagAwlRGhR9fYP62grpwXLfilq8LTU3m72gc90RjYBGHPkbA9GzBgGkNtOlZky7ZZ31OuuW6qZHqUl5rlwvbUUbWZ4o/4Ko6p55Tf/B7ulgKAT3cGQlWFFoqYfd14rafzYqf13gW7s/+fNH+FmCJLByHq8Q19QlSkcM6M9XS2+ulhuDcVbcYWEPKdq/1/tfqBZxcbiqK/yBQ1u0I3B/ubhkdxDvH4mIHNQI7I4fqhDfXyvDtSUypH19jNlq34hu3NtxWDZMbjZH5nkts+9KiPC1fhqrd3NAlrCbipYQA9cdCD1dJSIBFN2W2D0oBFXigxoZ6Z7ERhCIa95YI8/bEdCNrWRCg+DV5m0PvL2HgY6MAAAQAElEQVRa1nUdxxcJjTmmnRAPrtwTfKZaSgJYKagj/v1v3O3qMVWumzB3HJYNE4m3wKFeCrGSKS0dMVTrhv4Z9NBelhFZ677md5i2XY3aayvkunYeQYbJuUliWW1w8a4AJA/XxH+Fg/vvJuWrLQoGxu8Z1Yod4nfbA8v2hVwJcooa37G3lbsDj1dLyKDR7ZcWI0ideGeN/5utgY6Vumdxg+V3pMLdkxfChwwXqcEzJaZfpoeckOdKrK9lLyyq6n3B+dsD2CdadrJoYAgCsQBSMBbt0dU7D6kfrvfjxDO6IYF7iIczUKznBPoeyy77Je3llfIhWUt6SUBHf1B/d61/X1LvIsdS+a7DO+nZ6Toqpl9SeKpdksbAbyXMa2qBm7HAHuFMuLRJTNOIf23yi4GEN2nNFLGusEVFFh+upLmijRe4m3dqZH9IpzAybl8QVHUCr5A/smNb4yL7HptrbOjeWi3vFzW8DZhKAI1QWBfJuUiSNHQ07QaIDvm195vhMu3gVKaIgMWiSZFqDxuOtOt2nwZjNdXbRRNczP6vF0uOzXVhDbQMwTVWO04b8wQql6eyOSMphsqWDrEX4FgnaavrQvCYsa1xakAWJU6HyKaNB4yvmotvKHCZWMyl+a4Th3om9WO8bmyPIml09uua/aGle4JxvNXATPqSifxtZcJtU4UrJvMjc2icWphqBe+8fG8o6rs6gDYyBshkosChmw4MV6IVfSILBmJ4uNV5jW+HDj4JIbDhQGhfowpLNe3NuclMjwnOswe54XE8NNFPoKYPcF08gbv/pMxnf5h134mZ952U+dD3Mx//QdaFRdzIbBrdTCmjkqPIr3YEgjBz3KRWsCpQoAVKJKX524Ni3GN1wUWeO5qF2LdOFa6ezN8+zQv5Tx/uyWZNtI6k3Emu8T6BA00ZTsJMIJoifjqK/d0s7+kj4ItdE/u6Th7quXO695xC1ipGblC0rzb7I4lleah7j8t4+UdZKNeX8AIThfHhviRJXD6BQ5/IApM4fRR7uEeP/9M1TKozTxPyyl9vDTQqWOzmYnIeqg9ngjM80YwBrl8UcbdMFW6e6v3xSHZ4Nt2LpRCeZLhJlP5e6oxC9pap3pkFbpiyKXX4slqf1pDa99gY7o4k+nLUqCx6cl9mRDZyXIe5KSqxep/FUm7ukuGhLhjHnTuWg7QemnRRBMuQeTx1wXgO3tZqSTcP7SwvWw6G8JZjJc3EXOas0WwOB6QPd4GzwTT9eBQ7KQ/7w8OVkX/gATfWq5HPc2BwppuEB0fhGZIEicgBEdfYcqJPZAEvQBrRpUdfmiykHo1HO5VH6PH5Zv+3OwKMhQkivzS5D+OmTej299LXlginDGeHZTMwaJMezVW5AnVBETcu14Vl0FwR/SIqen0KXwQO1sV9XddM4H4zy3vX8Rm3TPOeV8S18Nh8IHTI2hfDSZ8xwnP8YCNUbBkSvoDzmjnI/dNClurcJgZUq3YFsakPix312pfHewYHJxJVj1tU/niUJ8csioQt1Pq1TSk8KAf6TjFFoHNbk6nInaMShr67UX1ntfz31X43LNRCqiBBzMx3UfAKMR3wNuthSLOW6K69Oeq0oW6/EQhFN+FeDGpRD6aiMsFCU+T3h3quK+W/N5wdkEljEeLN3B2Ry9l9KGTFF95qkJc6bogbWpiyg2ogPjibQU/TDp2hEjnyjQ2W3w07NocZ0svs3aZZ9KHZzNBs81Z4wG0NKl6bO/aAl45S0XFYbSC99ZBatSe4dPfRUr4z8MkG/zOLfXMX+D7drChIilrQQMvkXCY/I8IBWPSMX42VP6gXnducho/t6VcJCe4ztqGtGuz0zh3jwZ4UCX6wiO0eUAnsN60y+m6KKBvgxoYldmBLDVp/ONQjJiVeC5G0XjRI2u4mc4eFd5QxuQycuJUAcO7F/Vym7yMUQWxqVCUE2FaDnfqkEACwSY3rGYOwVr/YEnhyifj00qPluUrprdX+b3cFayXNOrQyAIJBnzDIjeMz4ybufxyrbzoQWrAj8NUWJVzmbQssqw0ePBLeMDSZ6SIhjwmZpAIYONPCPszpI9g4C9If0vf7NaxbE6YE4XWRRblHs12mfeAHJ+QyED4pGU1J2lxZ79dlYGFGlSGJIb3bUHBwL8bU20HxvaIWsKBsxs2pSwgBx2G1AZOi6r5gqyKG9ICqw1WhxBmMN95ZA1xlAywfEIX3afBr/9sWuH+h78bPDv3xO9/TldJLyw6X56rEB8vFWz9vvO2LxnfXyGvrQ6qti553k2eNYq12c2G9wFIMGpqGb6NecziqN9+2/Qhusqg3ba/wUZKkcovwCgcLphSw2UMUWetT4xSOMb6N1nQ4zMbq5NG0v1OZCAJtG1wiVJw+UQjAt/QXKKScTR9oQGe4s4rdwQcXi48vESt2B5sUHeFMUNVDGhEuSH/ALSLy2tmovr3G//gS6aBs+agXCLa39M+gR/XGkow3DgI0BqGKeZ8sluKxoM0bj9YiTYbNbKd1WMhhhfDWcVTeo1c4bLiv3Dd3Ybxy/yKfx2INwd03IYV5lJ5zZQMCFmDbQLnnktAIYlgWfWUx3z/T3CPAPX20Tp5b7lu33/iQHbYPccBCHIe9iabpNm4vkFpBck1wgXYczkZTnB4sTbrM9TMGtvxnKAKBWKddufBWmK8WaSMv4Md2NyLD1Uaxggg+2gegIyk61ykj4DislCFsTQARyZAs+tKJfFGeuT9AbIUs1T/WKW6CsLJ1Is3//Lo+OptG7JMqH8vwqxVhmiSNL5FqVdc1bjBBbRYrTRApO1tCK3CSrnccVtLQRQ+Eq6IY8uxCzx3ThdG5SDRHd8A93rTX1QX/sdYf52zR6EYYn1aDa0vMIWBE+4pfMx6vjx/ZtY9iW73TpEhbbI91O7xdtAjOfUoIOA4rJfjCg5FvChHE8YPdd04VzhvL5Qm0laHiLffrbQEcS1l1AEF4E4omB2bRBZm04CYljQjodgYo8B1ZLtLcoYJ9wgUqIHJqszvYIT1niUib450ODgIRCDgOKwIMs0ssS0QisQV5JZ4h+3npETnMVZO5J0/JvKFEmNTP5Yq7NDcdDFXvC1l1cdPk2Fzm3uO9L/ww6y/fy5h7YsZTp2b97UdZc4r54n4utGLxm8nY7jqBIckEZh7+CIpbUT8U0HAmYNXaUh9SiXpZa+PpgJbeHX7hpuIhAfWTLjRJUECQcP7ZiUACZmsnuy5GC95q6gDXz8Zy54xhIwvCqGtLhBumCNj9/X6297QRbH4Gjewy+sfXcMsh9aBinuRFjvb4Qe5bp3on5LkyPSTHGAV58T4cdfIwz81lwpBMCn3i07e3Fc43w2X5vQsH/ZqIg7S2WAY1HVozbULTFp00tWdzlIsyF44miR+PYs9tPfWRZhD/+szRxodD0yR2jyXbtRxWh08TSZT2c/20kD1rNBdZzihkjxvsLs13YdeGw7IExUJOaleTGjB70BBNOTx18QQuy2O+eLCmEGElyMiubh6G7MVSVtvRg7IOddrktc+nbmlSIX+bPRPpAHTEkPHLF1adgaT5G4LFgAEZtMfirBO8Jvd1ndl66iPNIP71j0Yan3ayYOtUJ4mA47DaBg6LLba0PSymR0jTD2BzhHUQ04RIZdoAFxxETMuxrECUl8saX8tlKoSk6lV7cNJg2ni4UtWI73YGePt2RpiI3aIGJA8ziPlT79ek9jwA0pujvBafBQWZNfuM5zHANLkSI51TkSoCjsNKFcHEx2P1Niq6KeJY9zmCxRt9MwNkrzQED83XHfaCVZqfaWx1TTlCnKW1wQ37Qzj6NO2AyvUHQt/sCLpMdUZz+wu8/V5R223x6T/Qq9wdjIcjerQuvThqUCYNeFtXH75bvDu49SAOVA7fxvkjBnURhyNxeiTWBAUT69hDe9lnSj0UQHvUhplqcdY9QYiKtkPUOn62BmUzHHI5ZlpC5saA/slG5ZBFVk5Rifdr/I3JffWNTpjxNOoa/NrCnUG4S+Om9f+NB0KrrM80Wvc9fJfhJkdmW2bYdjap3261UO8wAeOPHNL/vlL+YK0catd21Bja+r9OxH/epXXvnnjX8UugJ6Ic1hkBC/JQpm/mHorYVK+aLkKMDaoE3urrZB0UcNuRJT+DGuC1NBK4skW7Ai9VS3VStOxIbz27RFy5Lwi/1l6BeRfpMX/q1qCEAOqTTcr/tioIaoz75v9gv6w2+HyVFMJVc02CL9itlg10ey1cFk45/rs18Mk6v886elpdF3q43PfFFuXDDcp/NymmOcoEhYFtgBqSg5H9ccaKwDyypidfW9piTwYlTbrTFImMCdZALH0szyV7gljksU0IvKpqA/9YryD9Hdua7hq4mykF7viOcuGu4EPl4meblYOykV2ql7SvtigPLxbLd1uv8rhy47y1v0DF8TxwL68slx+pMJgu3BH4dpvy0nLp2Spp2yGzE424vNDYV6Am9nfhwrQA/3dq/E9XSTsbVXhDSIUavGKDD03/ud7/WIW4bK+xbYQnfWetXLGnjZ/5gosEqqa8UFm9L/TaSglxInSZvz3w+ioZ9GvqDPpodYrjsDrOBrAOCzIpwsxaUYcU1X2LxHnbAtjy+IPGZ6GlgL6+PvRejf++xaLPn+JmI3k1S/q7+mdgMVpSQJy1+WDohSrpF58c+uH7DRf959DTldKOQ6qpa7ak0rphTA4T/3N4AVVfXht8oVp6qEJ8fKn0+SYFBxqIUFqTSfTuxyPZXIGy6g1eS3YFbvyy8Y6vm15ZLr26Qn55ufTn+U1X/vfQGytkzBemLzzWH9ChO/wLPFq4Jva1D0u5rOFUVH3+jsDd85pu/KLxkSXiR+v8OxqAZNKaxfLvlDUJC2U5SQlTcDq2A4HhvZhsT4t5txqI2tom9bll0r0LxSerJLyl/7nc90C5+NYamdFNvVyr4em7gbeaPdDdZiIHbstLEtkUgVdcpyjP+FxGb8s2gRi6YO2j4DoVjoN70acO88TJtoG+Sye2Naj/2qC8v97/0QZl2b4QaqI0RbdgSH9lhbTdOtZzMcbX3hPW/0AEETdLEqnrRXS7f5jxbqdTJ1ZoWC96aC/GKvTAzgvmvu1gqHxnADud9XUhvHvDdo+tQliTPxzhGZND45g/CUl0goBe7R2YxVInDnQnsaVEIEq2lxlBNOvI/mCwO/7WC92wMecoAq/YlpryIQliS4P63moZipt28HqoPN5Zd6bYtF3pANc2Rjb2yGCpkwe7mbiow+LRjoILlDB3+Lg4u4xwn/S9cgx5wTiOtYgN4/Pt56VGZTPtdXbwcbMHuZF9j088qhVcRvWm3Va+JKp361tMyllj2NK+rjZjydbjTO5YFzm+r6UQ8MWj2voiUxOiTlUzAlgXzX+dlw5BAG/RUwe6jy9oI40dJYuHIWcUuHBaZ+6zonqn57Yoz/WbKYLL+pM6pmwHZRm/DNSbT+ZDRePzmDNHeuCDTCnHVpIkMbPA9dNCPs5tNAAABTVJREFUziq0iR0SVZOfQV9fys/Id8FdRjUleAvWXo66a6b3lOGWvyQIGzhhqCcbW74EiTrdIhBwHFYEGB1ySZPEWWO54r6Wx1JRUmDxnDTY/bMxXFR9B99C7HF9XVdO4HIT284YS9dDXl3MI5rAsVoS0npo8tThbHE/JpEEHiLQ6QNcl03kGVg0eCfBr3lIL5aCzMjBu0CnuaZdL2NzmTunCoU5DGYtzsA+vPHrYW5gGqdTZFMKGkWS6QbXSU1LN9A7QgUYA8wd7+SxBfVojehrzyV2STdP854+3INcBuICxE1RXHCLStjzoEz6F+O4iyfygpvEiX2shOEadI6VDJVBnQh3iH21+oRgLJ2WGizCEwZ7fjvTOz3fhaODsJB4bemAC/gm1PAMedxA9x9mZ8Bbtexq0drekuEhbywVzh7FZnmAk/EdYSAeSQQZK9T04aifjPBcVyr05igIYAUU0EhE62yOuqCIu3OGd3aBO9NNQmsrMwBrgIxXliZHZdOXjud+NysD3ipSQqvrHwz3XFPM9xcomjK+FR5EUMKdcYESpozN+MjedK71CWZ4SM95dRwWAa9R0ocpyzMpU3KZXp5UVpylIXlo4rwi7sYpwomD3COzaGz6/DrRpOooKkl43eTY3vRpw9mby4QfjmSxZhiKKMqmp5oJOT2PyTPbXxQI1PRcE6XKcpnSPrQL7tBSOssGuI2CTPqKYuGaYmFmvmtIBuWmCaSXITYKSRE5HDmtn+vySfxlk3jsBy0JJdyAjM8Zo9lrJ/MAapCXgtiSTjSquk8jdJIYKFCzB7jmlPIA09OsEVxbSR/adDZn5TGZic0mAJ/Q13X5ZP66Ev6UIcYEZTR/MZmo6n7NKLKm+1SdoYl8gZrR3/XzcewNU4QfjGDdCa8nCIsk3ZxS4cfDPWOy6d4sPBeJlL8IHwwDcJGDMyggfPF47qoSYXhv5ghgPf1vwgB3X6BmDfbcNivjjtkm5VezMyb0d6dJdZYhC/swMMffHpfxh1nev8wQ/jrDi/KnGd7fz8r49eyMCydwA7MOf5Qv00NdXea98zgTIX97fMa4PJMN5olDPb853qQ/iNw+M6MXl/zUY9kX57tunOb93fEZ/xch+T2zvHfPzrhlunf2YDd8rl24AaiSAe6rSoXfHQeghDBQc2cI98z0omZOmXdcngt9wuywtm+baaI15vf3J2QW5rngjMI923xFVFuS7750snDX8Rm/n+WdO1O4e6pw7QQe5dZi/s8zvH+EALMzbp7u/cFItl8GjVipTZpRHUb1YS4YzwPGu2d7/zjL+6eZXuj1p1ne38/2wipumuY9cZgHe/DEZY6i3/1uk7faboMFogYYhFVJS3wVgR34YuMzIocpyndPLDDK2H6uodk07yLJ1rzR06q07niYOoZb9Uf94U4p/EGMkM1So/q4xh+RvDDXNSDTWLem8qTAyhgKmXN4g92EfPckADXAPaavC8mgKDcB1uhpVdBq0GrPf5CC8x2SzUDNqYM9p4xkUY4fxk4ucI/KdfX1UuiQBNkWETBN2Pchbi3MZcb1c00Y4B6dBwNgcrhUKbew6E4XjsPqTrPp6JJeBOCYsDdHgbNOLyeHugUCPcphWWDgVDsIOAh0EQQch9VFJsoR00HAQYAgHIflWIGDgINAl0HAcVhdZqocQduFgNO5WyLgOKxuOa2OUg4C3RMBx2F1z3ntVFppuvEwt2rx2qlEdYTp5Ag4DquTT1CXF48kiRG96RkDXNPMSmk/F5nIZwW7PAyOAvYg8P8AAAD//xtz3lYAAAAGSURBVAMAtqUTe/fwDIUAAAAASUVORK5CYII=;" vertex="1" parent="Al5XGX1l0qWC6tel_waJ-24">
          <mxGeometry x="800" y="450" width="65.19" height="43.35" as="geometry" />
        </mxCell>
      </root>
    </mxGraphModel>
  </diagram>
</mxfile>
